<svg width="208" height="65" viewBox="0 0 208 65" fill="none" xmlns="http://www.w3.org/2000/svg">
<path d="M60.8775 51.7119C61.5442 50.7952 62.065 49.764 62.44 48.6182C62.815 47.4723 63.0233 46.2952 63.065 45.0869V45.0244C63.065 44.6911 63.3671 44.1702 63.9713 43.4619C64.5754 42.7536 64.9817 42.3994 65.19 42.3994H66.1275V41.2744H57.565V42.4619C58.7317 42.4619 59.6588 42.7848 60.3463 43.4307C61.0338 44.0765 61.3775 44.9411 61.3775 46.0244C61.3775 47.0244 61.2838 47.9202 61.0963 48.7119C60.9088 49.5036 60.5858 50.2744 60.1275 51.0244C58.5025 49.5661 56.7942 47.9932 55.0025 46.3057C53.2108 44.6182 51.5442 42.9411 50.0025 41.2744C48.9608 40.8577 48.1275 40.2744 47.5025 39.5244C46.8775 38.7744 46.565 37.9202 46.565 36.9619C46.565 35.8786 46.94 35.0348 47.69 34.4307C48.44 33.8265 49.4608 33.5244 50.7525 33.5244C52.3358 33.5244 53.6588 34.1286 54.7213 35.3369C55.7838 36.5452 56.315 37.5661 56.315 38.3994H57.3775V32.7119H56.315C56.19 32.9202 56.0442 33.0452 55.8775 33.0869C55.7108 33.1286 55.4817 33.1494 55.19 33.1494C54.69 33.1494 54.1067 33.0244 53.44 32.7744C52.7733 32.5244 51.8983 32.3994 50.815 32.3994C49.0233 32.3994 47.6067 32.8682 46.565 33.8057C45.5233 34.7432 45.0025 36.0661 45.0025 37.7744C45.0025 38.8161 45.1796 39.7327 45.5338 40.5244C45.8879 41.3161 46.3567 42.0869 46.94 42.8369C45.7733 43.6286 44.8358 44.6494 44.1275 45.8994C43.4192 47.1494 43.065 48.5452 43.065 50.0869C43.065 50.0869 43.065 50.1077 43.065 50.1494V50.0869C43.065 52.2119 43.8567 53.9307 45.44 55.2432C47.0233 56.5557 48.7942 57.2119 50.7525 57.2119C52.5025 57.2119 54.0129 56.9723 55.2838 56.4932C56.5546 56.014 57.6692 55.2952 58.6275 54.3369C59.6275 55.2536 60.5858 55.8994 61.5025 56.2744C62.4192 56.6494 63.4608 56.8369 64.6275 56.8369H67.2525V55.5869H65.815C64.8983 54.9619 64.0338 54.3161 63.2213 53.6494C62.4088 52.9827 61.6067 52.3161 60.815 51.6494L60.8775 51.7119ZM52.69 55.3369C50.9817 55.3369 49.3671 54.639 47.8463 53.2432C46.3254 51.8473 45.565 50.2952 45.565 48.5869C45.565 47.3369 45.7317 46.3369 46.065 45.5869C46.3983 44.8369 46.8775 44.1286 47.5025 43.4619C49.1275 45.2952 50.7942 47.0452 52.5025 48.7119C54.2108 50.3786 55.9608 52.0036 57.7525 53.5869L57.94 53.7119C57.2317 54.2119 56.4504 54.6077 55.5963 54.8994C54.7421 55.1911 53.7733 55.3369 52.69 55.3369ZM85.8775 55.2119C83.4608 55.2119 81.5442 54.4723 80.1275 52.9932C78.7108 51.514 77.8983 49.7119 77.69 47.5869C77.6483 47.0869 77.6067 46.5348 77.565 45.9307C77.5233 45.3265 77.5025 44.7327 77.5025 44.1494C77.5025 43.6494 77.5129 43.1702 77.5338 42.7119C77.5546 42.2536 77.5858 41.7952 77.6275 41.3369V41.4619C77.8358 38.7536 78.5442 36.7848 79.7525 35.5557C80.9608 34.3265 82.6067 33.7119 84.69 33.7119C86.9817 33.7119 88.7733 34.6494 90.065 36.5244C91.3567 38.3994 92.0025 39.9619 92.0025 41.2119H93.065V32.7119H92.19C91.9817 32.9202 91.7733 33.0765 91.565 33.1807C91.3567 33.2848 91.065 33.3369 90.69 33.3369C89.7317 33.3369 88.7942 33.1598 87.8775 32.8057C86.9608 32.4515 85.8567 32.2744 84.565 32.2744C81.19 32.2744 78.5442 33.4827 76.6275 35.8994C74.7108 38.3161 73.7525 41.2327 73.7525 44.6494C73.7525 48.1077 74.7942 51.0765 76.8775 53.5557C78.9608 56.0348 81.7317 57.2744 85.19 57.2744C87.565 57.2744 89.5858 56.6598 91.2525 55.4307C92.9192 54.2015 94.1483 52.5036 94.94 50.3369H93.69C92.8983 51.9202 91.9192 53.1286 90.7525 53.9619C89.5858 54.7952 87.9608 55.2119 85.8775 55.2119ZM150.753 40.8369C149.461 40.8369 148.367 41.1286 147.471 41.7119C146.575 42.2952 145.773 43.2119 145.065 44.4619L144.565 41.2119H139.503V42.4619H140.503C140.753 42.4619 141.096 42.6702 141.534 43.0869C141.971 43.5036 142.19 43.8369 142.19 44.0869V61.5244C142.19 61.8161 141.971 62.1702 141.534 62.5869C141.096 63.0036 140.753 63.2119 140.503 63.2119H139.503V64.3994H147.753V63.2119H146.753C146.544 63.2119 146.211 63.0036 145.753 62.5869C145.294 62.1702 145.065 61.8161 145.065 61.5244V54.0244C145.648 55.0661 146.346 55.8473 147.159 56.3682C147.971 56.889 149.065 57.1494 150.44 57.1494C152.315 57.1494 153.857 56.3577 155.065 54.7744C156.273 53.1911 156.878 51.1911 156.878 48.7744C156.878 46.3994 156.336 44.4827 155.253 43.0244C154.169 41.5661 152.669 40.8369 150.753 40.8369ZM153.878 51.3369C153.711 52.5452 153.294 53.5348 152.628 54.3057C151.961 55.0765 150.961 55.4619 149.628 55.4619C149.586 55.4619 149.565 55.4619 149.565 55.4619C148.315 55.4619 147.253 55.0244 146.378 54.1494C145.503 53.2744 145.065 52.2327 145.065 51.0244C145.065 50.9827 145.065 50.9619 145.065 50.9619V46.9619C145.44 45.7536 146.023 44.7432 146.815 43.9307C147.607 43.1182 148.648 42.7119 149.94 42.7119C151.065 42.7119 151.961 43.0765 152.628 43.8057C153.294 44.5348 153.711 45.5244 153.878 46.7744C153.919 47.1077 153.961 47.4515 154.003 47.8057C154.044 48.1598 154.065 48.5244 154.065 48.8994C154.065 49.3161 154.044 49.7327 154.003 50.1494C153.961 50.5661 153.919 50.9827 153.878 51.3994V51.3369ZM201.003 41.2744V42.4619H202.003C202.211 42.4619 202.492 42.6702 202.846 43.0869C203.2 43.5036 203.357 43.8577 203.315 44.1494L199.878 51.8369L196.128 44.1494C196.128 43.8577 196.305 43.5036 196.659 43.0869C197.013 42.6702 197.294 42.4619 197.503 42.4619H198.44V41.2744H190.003V42.4619H190.753C190.919 42.4619 191.263 42.6911 191.784 43.1494C192.305 43.6077 192.628 43.9619 192.753 44.2119L198.253 55.0244L193.565 63.5869L194.878 64.2744L199.565 55.5244L204.815 44.1494C204.982 43.8994 205.284 43.5557 205.721 43.1182C206.159 42.6807 206.461 42.4619 206.628 42.4619H207.378V41.2744H201.003ZM132.878 55.6494H132.003V56.8369H140.003V55.6494H139.065C138.857 55.6494 138.534 55.4307 138.096 54.9932C137.659 54.5557 137.44 54.2119 137.44 53.9619V45.3994C137.44 43.9827 137.023 42.889 136.19 42.1182C135.357 41.3473 134.336 40.9619 133.128 40.9619C131.836 40.9619 130.794 41.2744 130.003 41.8994C129.211 42.5244 128.336 43.2952 127.378 44.2119C127.211 43.1286 126.732 42.3057 125.94 41.7432C125.148 41.1807 124.232 40.8994 123.19 40.8994C121.815 40.8994 120.753 41.2223 120.003 41.8682C119.253 42.514 118.419 43.3161 117.503 44.2744L116.878 41.2744H112.065V42.4619H113.003C113.211 42.4619 113.534 42.6702 113.971 43.0869C114.409 43.5036 114.628 43.8369 114.628 44.0869V53.9619C114.628 54.2119 114.409 54.5557 113.971 54.9932C113.534 55.4307 113.211 55.6494 113.003 55.6494H112.065V56.8369H120.065V55.6494H119.19C118.94 55.6494 118.596 55.4307 118.159 54.9932C117.721 54.5557 117.503 54.2119 117.503 53.9619V45.9619C117.503 45.4202 118.013 44.7536 119.034 43.9619C120.055 43.1702 121.086 42.7744 122.128 42.7744C122.961 42.7744 123.586 43.014 124.003 43.4932C124.419 43.9723 124.628 44.6077 124.628 45.3994V53.9619C124.628 54.2119 124.409 54.5557 123.971 54.9932C123.534 55.4307 123.19 55.6494 122.94 55.6494H122.065V56.8369H130.065V55.6494H129.128C128.919 55.6494 128.596 55.4307 128.159 54.9932C127.721 54.5557 127.503 54.2119 127.503 53.9619V45.8369C127.503 45.3369 128.013 44.7119 129.034 43.9619C130.055 43.2119 131.065 42.8369 132.065 42.8369C132.94 42.8369 133.575 43.0765 133.971 43.5557C134.367 44.0348 134.565 44.6494 134.565 45.3994V53.9619C134.565 54.2119 134.346 54.5557 133.909 54.9932C133.471 55.4307 133.128 55.6494 132.878 55.6494ZM104.315 40.8369C102.232 40.8369 100.409 41.5661 98.8463 43.0244C97.2838 44.4827 96.5025 46.4827 96.5025 49.0244C96.5025 51.5661 97.2838 53.5765 98.8463 55.0557C100.409 56.5348 102.232 57.2744 104.315 57.2744C106.357 57.2744 108.159 56.5348 109.721 55.0557C111.284 53.5765 112.065 51.5661 112.065 49.0244C112.065 46.4827 111.284 44.4827 109.721 43.0244C108.159 41.5661 106.357 40.8369 104.315 40.8369ZM108.94 51.5869C108.773 52.7952 108.336 53.7848 107.628 54.5557C106.919 55.3265 105.815 55.7119 104.315 55.7119C102.898 55.7119 101.825 55.3161 101.096 54.5244C100.367 53.7327 99.9192 52.7327 99.7525 51.5244C99.6692 51.1494 99.6171 50.7432 99.5963 50.3057C99.5754 49.8682 99.565 49.4202 99.565 48.9619C99.565 48.5036 99.5754 48.0452 99.5963 47.5869C99.6171 47.1286 99.6692 46.6911 99.7525 46.2744V46.3369C99.9192 45.0869 100.367 44.0869 101.096 43.3369C101.825 42.5869 102.898 42.2119 104.315 42.2119C105.773 42.2119 106.867 42.5869 107.596 43.3369C108.325 44.0869 108.773 45.1077 108.94 46.3994C108.982 46.7744 109.013 47.1807 109.034 47.6182C109.055 48.0557 109.065 48.5036 109.065 48.9619C109.065 49.4202 109.055 49.8786 109.034 50.3369C109.013 50.7952 108.982 51.2536 108.94 51.7119V51.5869ZM189.19 53.9619V45.3994C189.19 44.0661 188.763 42.9827 187.909 42.1494C187.055 41.3161 186.023 40.8994 184.815 40.8994C183.398 40.8994 182.253 41.2536 181.378 41.9619C180.503 42.6702 179.607 43.5036 178.69 44.4619L178.065 41.2119H173.128V42.4619H174.065C174.315 42.4619 174.669 42.6702 175.128 43.0869C175.586 43.5036 175.815 43.8369 175.815 44.0869V53.9619C175.815 54.2119 175.586 54.5452 175.128 54.9619C174.669 55.3786 174.315 55.5869 174.065 55.5869H172.19C171.982 55.5869 171.648 55.3786 171.19 54.9619C170.732 54.5452 170.503 54.2119 170.503 53.9619V45.5869C170.503 44.0452 169.919 42.8682 168.753 42.0557C167.586 41.2432 166.148 40.8369 164.44 40.8369C162.857 40.8369 161.544 41.0869 160.503 41.5869C159.461 42.0869 158.607 42.6702 157.94 43.3369L160.065 46.4619H161.19C160.607 45.1286 160.555 44.0452 161.034 43.2119C161.513 42.3786 162.419 41.9619 163.753 41.9619C165.169 41.9619 166.169 42.2848 166.753 42.9307C167.336 43.5765 167.628 44.4411 167.628 45.5244L167.565 47.3994L163.503 48.2119C162.419 48.4619 161.305 48.9098 160.159 49.5557C159.013 50.2015 158.44 51.3161 158.44 52.8994C158.44 54.1494 158.836 55.1702 159.628 55.9619C160.419 56.7536 161.357 57.1494 162.44 57.1494C163.607 57.1494 164.607 56.764 165.44 55.9932C166.273 55.2223 167.003 54.4202 167.628 53.5869L168.065 56.8369H181.315V55.6494H180.44C180.19 55.6494 179.836 55.4411 179.378 55.0244C178.919 54.6077 178.69 54.2536 178.69 53.9619V46.0869C178.69 45.5869 179.263 44.9202 180.409 44.0869C181.555 43.2536 182.69 42.8369 183.815 42.8369C184.648 42.8369 185.263 43.0973 185.659 43.6182C186.055 44.139 186.253 44.7744 186.253 45.5244V53.9619C186.253 54.2119 186.023 54.5557 185.565 54.9932C185.107 55.4307 184.773 55.6494 184.565 55.6494H183.628V56.8369H191.815V55.6494H190.878C190.669 55.6494 190.336 55.4307 189.878 54.9932C189.419 54.5557 189.19 54.2119 189.19 53.9619ZM167.628 52.2119C167.294 52.7952 166.753 53.3994 166.003 54.0244C165.253 54.6494 164.503 54.9619 163.753 54.9619C163.753 54.9619 163.742 54.9619 163.721 54.9619C163.7 54.9619 163.669 54.9619 163.628 54.9619C162.961 54.9619 162.398 54.7223 161.94 54.2432C161.482 53.764 161.253 53.1911 161.253 52.5244C161.253 52.5244 161.253 52.514 161.253 52.4932C161.253 52.4723 161.253 52.4619 161.253 52.4619C161.253 51.7119 161.44 51.0765 161.815 50.5557C162.19 50.0348 162.878 49.6494 163.878 49.3994L167.628 48.4619V52.2119ZM114.065 24.8994C115.982 24.8994 117.482 24.4098 118.565 23.4307C119.648 22.4515 120.44 21.1077 120.94 19.3994H120.003C119.503 20.2744 118.888 20.9411 118.159 21.3994C117.43 21.8577 116.398 22.0869 115.065 22.0869C113.315 22.0869 111.94 21.4307 110.94 20.1182C109.94 18.8057 109.44 17.4411 109.44 16.0244L119.815 15.1494L119.753 14.0244C119.669 12.5244 119.138 11.2432 118.159 10.1807C117.18 9.11816 115.815 8.58691 114.065 8.58691C112.023 8.54525 110.315 9.31608 108.94 10.8994C107.565 12.4827 106.878 14.4411 106.878 16.7744C106.878 18.9827 107.555 20.889 108.909 22.4932C110.263 24.0973 111.982 24.8994 114.065 24.8994ZM114.003 9.77441C115.503 9.77441 116.43 10.2432 116.784 11.1807C117.138 12.1182 117.253 13.1494 117.128 14.2744L109.315 14.8994C109.357 13.6911 109.742 12.5348 110.471 11.4307C111.2 10.3265 112.378 9.77441 114.003 9.77441ZM122.44 11.8994L127.94 22.7744L123.19 31.3369L124.565 32.0244L129.19 23.2119L134.503 11.8994C134.628 11.6077 134.909 11.2432 135.346 10.8057C135.784 10.3682 136.107 10.1494 136.315 10.1494H137.003V8.96191H130.69V10.1494H131.69C131.898 10.1494 132.18 10.3577 132.534 10.7744C132.888 11.1911 133.044 11.5661 133.003 11.8994L129.565 19.5244L125.815 11.8369C125.815 11.5452 125.982 11.1911 126.315 10.7744C126.648 10.3577 126.919 10.1494 127.128 10.1494H128.128V8.96191H119.69V10.1494H120.378C120.586 10.1494 120.95 10.3786 121.471 10.8369C121.992 11.2952 122.315 11.6494 122.44 11.8994ZM70.0025 5.14941C70.0442 5.14941 70.065 5.14941 70.065 5.14941C70.065 5.14941 70.0858 5.14941 70.1275 5.14941C70.6275 5.14941 71.0754 4.96191 71.4713 4.58691C71.8671 4.21191 72.065 3.75358 72.065 3.21191C72.065 3.21191 72.065 3.2015 72.065 3.18066C72.065 3.15983 72.0442 3.14941 72.0025 3.14941H72.065C72.065 2.52441 71.8671 2.03483 71.4713 1.68066C71.0754 1.3265 70.5858 1.14941 70.0025 1.14941C69.4192 1.14941 68.9296 1.3265 68.5338 1.68066C68.1379 2.03483 67.94 2.52441 67.94 3.14941C67.94 3.14941 67.94 3.15983 67.94 3.18066C67.94 3.2015 67.94 3.21191 67.94 3.21191C67.94 3.75358 68.1379 4.21191 68.5338 4.58691C68.9296 4.96191 69.3983 5.14941 69.94 5.14941C69.94 5.14941 69.9504 5.14941 69.9713 5.14941C69.9921 5.14941 70.0025 5.14941 70.0025 5.14941ZM52.5025 23.3369H51.315C51.065 23.3369 50.69 23.0973 50.19 22.6182C49.69 22.139 49.44 21.7744 49.44 21.5244V15.0869L51.8775 12.4619L60.2525 24.5244H82.6275V23.3369H81.7525C81.5025 23.3369 81.1483 23.1286 80.69 22.7119C80.2317 22.2952 80.0025 21.9411 80.0025 21.6494V13.8369C80.0025 13.2952 80.5754 12.6182 81.7213 11.8057C82.8671 10.9932 84.0025 10.5869 85.1275 10.5869C85.9608 10.5869 86.5858 10.8369 87.0025 11.3369C87.4192 11.8369 87.6275 12.4827 87.6275 13.2744V21.6494C87.6275 21.9411 87.3983 22.2952 86.94 22.7119C86.4817 23.1286 86.1275 23.3369 85.8775 23.3369H85.0025V24.5244H93.19V23.3369H92.19C91.9817 23.3369 91.6483 23.1286 91.19 22.7119C90.7317 22.2952 90.5025 21.9411 90.5025 21.6494V13.0869C90.5025 11.7536 90.0754 10.6702 89.2213 9.83691C88.3671 9.00358 87.3358 8.58691 86.1275 8.58691C84.7525 8.58691 83.6171 8.94108 82.7213 9.64941C81.8254 10.3577 80.9192 11.1911 80.0025 12.1494L79.3775 8.96191H74.44V10.1494H75.44C75.6483 10.1494 75.9817 10.3577 76.44 10.7744C76.8983 11.1911 77.1275 11.5244 77.1275 11.7744V21.6494C77.1275 21.9411 76.8983 22.2952 76.44 22.7119C75.9817 23.1286 75.6483 23.3369 75.44 23.3369H73.5025C73.2942 23.3369 72.9504 23.1286 72.4713 22.7119C71.9921 22.2952 71.7525 21.9411 71.7525 21.6494V8.96191H66.19V10.1494H67.1275C67.3775 10.1494 67.7317 10.3577 68.19 10.7744C68.6483 11.1911 68.8775 11.5244 68.8775 11.7744V21.6494C68.8775 21.9411 68.6483 22.2952 68.19 22.7119C67.7317 23.1286 67.3775 23.3369 67.1275 23.3369H65.3775C65.1275 23.3369 64.6379 23.0661 63.9088 22.5244C63.1796 21.9827 62.7108 21.5661 62.5025 21.2744L54.065 10.0869L59.94 3.77441C60.1067 3.60775 60.6067 3.2015 61.44 2.55566C62.2733 1.90983 62.7942 1.58691 63.0025 1.58691H64.19V0.399414H55.44V1.58691H56.6275C56.8358 1.58691 57.1692 1.87858 57.6275 2.46191C58.0858 3.04525 58.2317 3.44108 58.065 3.64941L49.44 13.2744V3.39941C49.44 3.14941 49.69 2.78483 50.19 2.30566C50.69 1.8265 51.065 1.58691 51.315 1.58691H52.5025V0.399414H43.065V1.58691H44.2525C44.5025 1.58691 44.8775 1.8265 45.3775 2.30566C45.8775 2.78483 46.1275 3.14941 46.1275 3.39941V21.5244C46.1275 21.7744 45.8775 22.139 45.3775 22.6182C44.8775 23.0973 44.5025 23.3369 44.2525 23.3369H43.065V24.5244H52.5025V23.3369ZM105.628 20.1494C105.628 18.8994 105.232 17.9202 104.44 17.2119C103.648 16.5036 102.836 15.9827 102.003 15.6494C101.378 15.3994 100.805 15.1702 100.284 14.9619C99.7629 14.7536 99.2108 14.5244 98.6275 14.2744C97.8358 13.8994 97.2108 13.5452 96.7525 13.2119C96.2942 12.8786 96.065 12.3786 96.065 11.7119C96.065 11.1286 96.2838 10.6494 96.7213 10.2744C97.1588 9.89941 97.8358 9.71191 98.7525 9.71191C100.211 9.71191 101.367 10.2327 102.221 11.2744C103.075 12.3161 103.503 13.1494 103.503 13.7744H104.44V8.96191H103.628C103.544 9.12858 103.43 9.24316 103.284 9.30566C103.138 9.36816 102.961 9.39941 102.753 9.39941C102.169 9.39941 101.596 9.264 101.034 8.99316C100.471 8.72233 99.7525 8.58691 98.8775 8.58691C97.4192 8.58691 96.2733 8.9515 95.44 9.68066C94.6067 10.4098 94.19 11.4827 94.19 12.8994C94.19 13.9827 94.5025 14.8473 95.1275 15.4932C95.7525 16.139 96.5442 16.6911 97.5025 17.1494C98.1275 17.3994 98.6796 17.6286 99.1588 17.8369C99.6379 18.0452 100.169 18.2744 100.753 18.5244C101.419 18.8161 102.075 19.1598 102.721 19.5557C103.367 19.9515 103.69 20.5869 103.69 21.4619C103.69 22.2119 103.419 22.7536 102.878 23.0869C102.336 23.4202 101.586 23.5869 100.628 23.5869C98.9192 23.5869 97.5754 23.0036 96.5963 21.8369C95.6171 20.6702 95.1275 19.7327 95.1275 19.0244H94.19V24.5244H94.94C95.1483 24.3577 95.315 24.2223 95.44 24.1182C95.565 24.014 95.7942 23.9619 96.1275 23.9619C96.7942 23.9619 97.4608 24.1182 98.1275 24.4307C98.7942 24.7432 99.6275 24.8994 100.628 24.8994C102.086 24.8994 103.284 24.4827 104.221 23.6494C105.159 22.8161 105.628 21.6494 105.628 20.1494ZM37.0025 22.0869C35.2108 22.0869 33.8046 21.4827 32.7838 20.2744C31.7629 19.0661 31.2525 17.5869 31.2525 15.8369C31.2525 14.0036 31.6275 12.5244 32.3775 11.3994C33.1275 10.2744 34.2733 9.71191 35.815 9.71191C37.1483 9.71191 37.9817 10.1807 38.315 11.1182C38.6483 12.0557 38.7108 13.1286 38.5025 14.3369L39.44 14.2744L41.7525 10.7119C41.0025 10.0036 40.19 9.46191 39.315 9.08691C38.44 8.71191 37.3983 8.52441 36.19 8.52441C34.1483 8.52441 32.3983 9.27441 30.94 10.7744C29.4817 12.2744 28.7525 14.2952 28.7525 16.8369C28.7525 19.0452 29.3983 20.9411 30.69 22.5244C31.9817 24.1077 33.7108 24.8994 35.8775 24.8994C37.8358 24.8994 39.3671 24.3994 40.4713 23.3994C41.5754 22.3994 42.3983 21.0452 42.94 19.3369H41.94C41.3983 20.2536 40.7733 20.9411 40.065 21.3994C39.3567 21.8577 38.3358 22.0869 37.0025 22.0869ZM14.44 18.4619H14.2525L7.0025 0.399414H0.00250244V1.58691H1.19C1.44 1.58691 1.815 1.8265 2.315 2.30566C2.815 2.78483 3.065 3.14941 3.065 3.39941V21.5244C3.065 21.7744 2.815 22.139 2.315 22.6182C1.815 23.0973 1.44 23.3369 1.19 23.3369H0.00250244V24.5244H7.5025V23.3369H6.315C6.10667 23.3369 5.7525 23.0973 5.2525 22.6182C4.7525 22.139 4.5025 21.7744 4.5025 21.5244V3.58691L13.2525 24.9619L22.0025 3.96191V21.5244C22.0025 21.7744 21.7525 22.139 21.2525 22.6182C20.7525 23.0973 20.3983 23.3369 20.19 23.3369H19.0025V24.5244H28.315V23.3369H27.1275C26.9192 23.3369 26.5546 23.0973 26.0338 22.6182C25.5129 22.139 25.2525 21.7744 25.2525 21.5244V3.39941C25.2525 3.14941 25.5129 2.78483 26.0338 2.30566C26.5546 1.8265 26.9192 1.58691 27.1275 1.58691H28.315V0.399414H22.0025L14.44 18.4619Z" fill="black"/>
</svg>
