<svg width="32" height="33" viewBox="0 0 32 33" fill="none" xmlns="http://www.w3.org/2000/svg">
<path d="M0.5 11.0059H6.96875V32.0684H0.5V11.0059ZM3.78125 0.599609C4.82292 0.599609 5.71875 0.9694 6.46875 1.70898C7.21875 2.44857 7.59375 3.33919 7.59375 4.38086C7.59375 5.42253 7.21875 6.31836 6.46875 7.06836C5.71875 7.81836 4.82292 8.19336 3.78125 8.19336C2.73958 8.19336 1.84896 7.81836 1.10938 7.06836C0.369792 6.31836 0 5.42253 0 4.38086C0 3.29753 0.369792 2.39648 1.10938 1.67773C1.84896 0.958984 2.73958 0.599609 3.78125 0.599609ZM11.125 11.0059H17.375V13.8184H17.5C17.9375 12.9642 18.6875 12.1777 19.75 11.459C20.8125 10.7402 22.1458 10.3809 23.75 10.3809C25.3958 10.3809 26.7292 10.6413 27.75 11.1621C28.7708 11.6829 29.5677 12.3965 30.1406 13.3027C30.7135 14.209 31.0938 15.2663 31.2812 16.4746C31.4688 17.7038 31.5625 19.0163 31.5625 20.4121V31.9434H25.0938V21.6621C25.0938 20.4329 24.9479 19.1829 24.6562 17.9121C24.3646 16.6413 23.3646 16.0059 21.6562 16.0059C19.9479 16.0059 18.8698 16.5684 18.4219 17.6934C17.974 18.8184 17.75 20.0579 17.75 21.4121V31.8184H11.25V11.0059H11.125Z" fill="white"/>
</svg>
