<svg width="32" height="33" viewBox="0 0 32 33" fill="none" xmlns="http://www.w3.org/2000/svg">
<path d="M5.03125 23.4746C4.51042 23.4746 4.02604 23.5736 3.57812 23.7715C3.13021 23.9694 2.72917 24.2559 2.375 24.6309C2 25.0267 1.71875 25.4538 1.53125 25.9121C1.34375 26.3704 1.25 26.8704 1.25 27.4121C1.25 27.9329 1.34375 28.4277 1.53125 28.8965C1.71875 29.3652 2 29.7871 2.375 30.1621C2.72917 30.5579 3.13021 30.8496 3.57812 31.0371C4.02604 31.2246 4.51042 31.3184 5.03125 31.3184C5.57292 31.3184 6.06771 31.2246 6.51562 31.0371C6.96354 30.8496 7.375 30.5579 7.75 30.1621C8.10417 29.7871 8.375 29.3652 8.5625 28.8965C8.75 28.4277 8.84375 27.9329 8.84375 27.4121C8.84375 26.8704 8.75 26.3704 8.5625 25.9121C8.375 25.4538 8.10417 25.0267 7.75 24.6309C7.375 24.2559 6.96354 23.9694 6.51562 23.7715C6.06771 23.5736 5.57292 23.4746 5.03125 23.4746ZM1.25 11.8496V17.5059C1.6875 17.5059 2.125 17.5319 2.5625 17.584C3 17.6361 3.4375 17.7038 3.875 17.7871C4.3125 17.8704 4.73438 17.9798 5.14062 18.1152C5.54688 18.2507 5.94792 18.4017 6.34375 18.5684C6.73958 18.7559 7.13021 18.9538 7.51562 19.1621C7.90104 19.3704 8.28125 19.5996 8.65625 19.8496C9.01042 20.0996 9.35417 20.3652 9.6875 20.6465C10.0208 20.9277 10.3438 21.235 10.6562 21.5684C10.9688 21.9017 11.2656 22.2454 11.5469 22.5996C11.8281 22.9538 12.0938 23.3184 12.3438 23.6934C12.5938 24.0475 12.8177 24.4225 13.0156 24.8184C13.2135 25.2142 13.3958 25.6204 13.5625 26.0371C13.7292 26.4538 13.875 26.8809 14 27.3184C14.125 27.7559 14.2292 28.1934 14.3125 28.6309C14.3958 29.0684 14.4583 29.5163 14.5 29.9746C14.5417 30.4329 14.5625 30.8913 14.5625 31.3496H20.0625C20.0625 30.0163 19.9375 28.7194 19.6875 27.459C19.4375 26.1986 19.0625 24.9746 18.5625 23.7871C18.0833 22.5996 17.5052 21.4902 16.8281 20.459C16.151 19.4277 15.3854 18.4746 14.5312 17.5996C13.6979 16.7038 12.7812 15.9121 11.7812 15.2246C10.7812 14.5371 9.70833 13.9329 8.5625 13.4121C7.41667 12.8913 6.23438 12.5007 5.01562 12.2402C3.79688 11.9798 2.54167 11.8496 1.25 11.8496ZM1.25 1.84961V7.50586C2.83333 7.50586 4.375 7.66211 5.875 7.97461C7.375 8.28711 8.8125 8.75586 10.1875 9.38086C11.5833 10.0059 12.8906 10.7454 14.1094 11.5996C15.3281 12.4538 16.4583 13.4225 17.5 14.5059C18.5625 15.5892 19.5052 16.7611 20.3281 18.0215C21.151 19.2819 21.8646 20.6309 22.4688 22.0684C23.0729 23.5267 23.526 25.0267 23.8281 26.5684C24.1302 28.11 24.2812 29.7038 24.2812 31.3496H29.75C29.75 30.3288 29.6979 29.3288 29.5938 28.3496C29.5104 27.3704 29.375 26.4017 29.1875 25.4434C29 24.485 28.7604 23.5371 28.4688 22.5996C28.1979 21.6829 27.875 20.7767 27.5 19.8809C27.125 18.985 26.7188 18.11 26.2812 17.2559C25.8438 16.4225 25.3698 15.6152 24.8594 14.834C24.349 14.0527 23.8021 13.2975 23.2188 12.5684C22.6354 11.86 22.0208 11.1725 21.375 10.5059C20.75 9.83919 20.0833 9.20378 19.375 8.59961C18.6875 7.99544 17.9635 7.43294 17.2031 6.91211C16.4427 6.39128 15.6562 5.90169 14.8438 5.44336C14.0521 4.98503 13.2188 4.55794 12.3438 4.16211C11.4896 3.78711 10.6146 3.45378 9.71875 3.16211C8.82292 2.87044 7.91146 2.62565 6.98438 2.42773C6.05729 2.22982 5.11458 2.08919 4.15625 2.00586C3.19792 1.90169 2.22917 1.84961 1.25 1.84961Z" fill="white"/>
</svg>
