<svg width="32" height="33" viewBox="0 0 32 33" fill="none" xmlns="http://www.w3.org/2000/svg">
<path d="M30.6875 9.22461C30.8333 9.80794 30.9479 10.5267 31.0312 11.3809C31.1354 12.2142 31.2031 13.0215 31.2344 13.8027C31.2656 14.584 31.2917 15.2454 31.3125 15.7871C31.3125 16.3288 31.3125 16.5996 31.3125 16.5996C31.3125 16.5996 31.3125 16.8704 31.3125 17.4121C31.2917 17.9538 31.2656 18.6152 31.2344 19.3965C31.2031 20.1777 31.1458 20.985 31.0625 21.8184C30.9792 22.6725 30.8542 23.3913 30.6875 23.9746C30.5 24.6413 30.1667 25.2194 29.6875 25.709C29.2083 26.1986 28.6458 26.5267 28 26.6934C27.3958 26.86 26.4479 26.985 25.1562 27.0684C23.8438 27.1725 22.5208 27.2402 21.1875 27.2715C19.8542 27.3027 18.6771 27.3288 17.6562 27.3496C16.6354 27.3496 16.125 27.3496 16.125 27.3496C16.125 27.3496 15.625 27.3496 14.625 27.3496C13.6042 27.3288 12.4271 27.3027 11.0938 27.2715C9.76042 27.2402 8.4375 27.1725 7.125 27.0684C5.83333 26.985 4.88542 26.86 4.28125 26.6934C3.63542 26.5267 3.06771 26.1986 2.57812 25.709C2.08854 25.2194 1.76042 24.6413 1.59375 23.9746C1.42708 23.3913 1.30208 22.6725 1.21875 21.8184C1.13542 20.985 1.07292 20.1777 1.03125 19.3965C0.989583 18.6152 0.96875 17.9538 0.96875 17.4121C0.96875 16.8704 0.96875 16.5996 0.96875 16.5996C0.96875 16.5996 0.96875 16.3288 0.96875 15.7871C0.96875 15.2454 0.989583 14.584 1.03125 13.8027C1.07292 13.0215 1.13542 12.2142 1.21875 11.3809C1.30208 10.5267 1.42708 9.80794 1.59375 9.22461C1.76042 8.55794 2.08333 7.97982 2.5625 7.49023C3.04167 7.00065 3.61458 6.67253 4.28125 6.50586C4.86458 6.33919 5.8125 6.21419 7.125 6.13086C8.4375 6.02669 9.76042 5.95898 11.0938 5.92773C12.4271 5.89648 13.6042 5.87044 14.625 5.84961C15.625 5.84961 16.125 5.84961 16.125 5.84961C16.125 5.84961 16.6354 5.84961 17.6562 5.84961C18.6771 5.87044 19.8542 5.89648 21.1875 5.92773C22.5208 5.95898 23.8333 6.02669 25.125 6.13086C26.4375 6.21419 27.3854 6.33919 27.9688 6.50586C28.6354 6.67253 29.2083 7.00065 29.6875 7.49023C30.1667 7.97982 30.5 8.55794 30.6875 9.22461ZM13.5938 21.2871L21.1875 16.7246L13.5938 12.1621V21.2871Z" fill="white"/>
</svg>
