<svg width="32" height="33" viewBox="0 0 32 33" fill="none" xmlns="http://www.w3.org/2000/svg">
<path d="M18.625 32.5996V18.0059H23.8125L24.5938 12.3184H18.625V8.66211C18.625 7.84961 18.8073 7.18815 19.1719 6.67773C19.5365 6.16732 20.3542 5.91211 21.625 5.91211H24.8125V0.818359C24.5208 0.797525 23.9479 0.755859 23.0938 0.693359C22.2396 0.630859 21.2604 0.599609 20.1562 0.599609C19.0104 0.599609 17.9583 0.766275 17 1.09961C16.0417 1.41211 15.224 1.88607 14.5469 2.52148C13.8698 3.1569 13.3438 3.94336 12.9688 4.88086C12.5938 5.81836 12.4062 6.89128 12.4062 8.09961V12.3184H7.1875V18.0059H12.4062V32.5996H18.625Z" fill="white"/>
</svg>
