<svg width="143" height="52" viewBox="0 0 143 52" fill="none" xmlns="http://www.w3.org/2000/svg">
<path d="M41.8515 39.2773C42.3098 38.6471 42.6679 37.9381 42.9257 37.1504C43.1835 36.3626 43.3267 35.5534 43.3554 34.7226V34.6797C43.3554 34.4505 43.5631 34.0924 43.9784 33.6054C44.3938 33.1185 44.6731 32.875 44.8163 32.875H45.4608V32.1015H39.5741V32.9179C40.3762 32.9179 41.0136 33.1399 41.4862 33.584C41.9589 34.028 42.1952 34.6224 42.1952 35.3672C42.1952 36.0547 42.1308 36.6705 42.0019 37.2148C41.873 37.7591 41.651 38.289 41.3358 38.8046C40.2187 37.802 39.0442 36.7207 37.8124 35.5605C36.5807 34.4004 35.4348 33.2474 34.3749 32.1015C33.6588 31.8151 33.0859 31.414 32.6562 30.8984C32.2265 30.3828 32.0117 29.7956 32.0117 29.1367C32.0117 28.3919 32.2695 27.8118 32.7851 27.3965C33.3007 26.9811 34.0025 26.7734 34.8905 26.7734C35.9791 26.7734 36.8886 27.1888 37.6191 28.0195C38.3495 28.8502 38.7148 29.5521 38.7148 30.125H39.4452V26.2148H38.7148C38.6288 26.3581 38.5286 26.444 38.414 26.4726C38.2994 26.5013 38.1418 26.5156 37.9413 26.5156C37.5976 26.5156 37.1965 26.4297 36.7382 26.2578C36.2799 26.0859 35.6783 26 34.9335 26C33.7018 26 32.7278 26.3223 32.0117 26.9668C31.2955 27.6113 30.9374 28.5208 30.9374 29.6953C30.9374 30.4114 31.0592 31.0416 31.3027 31.5859C31.5462 32.1302 31.8684 32.6601 32.2695 33.1758C31.4674 33.72 30.8228 34.4218 30.3359 35.2812C29.8489 36.1406 29.6054 37.1002 29.6054 38.1601C29.6054 38.1601 29.6054 38.1744 29.6054 38.2031V38.1601C29.6054 39.6211 30.1497 40.8027 31.2382 41.705C32.3268 42.6074 33.5442 43.0585 34.8905 43.0585C36.0937 43.0585 37.1321 42.8938 38.0058 42.5644C38.8795 42.235 39.6457 41.7408 40.3046 41.082C40.9921 41.7122 41.651 42.1562 42.2812 42.414C42.9114 42.6718 43.6275 42.8007 44.4296 42.8007H46.2343V41.9414H45.246C44.6158 41.5117 44.0214 41.0677 43.4628 40.6093C42.9042 40.151 42.3528 39.6927 41.8085 39.2343L41.8515 39.2773ZM36.2226 41.7695C35.0481 41.7695 33.9381 41.2897 32.8925 40.33C31.8469 39.3704 31.3242 38.3033 31.3242 37.1289C31.3242 36.2695 31.4387 35.582 31.6679 35.0664C31.8971 34.5507 32.2265 34.0638 32.6562 33.6054C33.7734 34.8659 34.9192 36.069 36.0937 37.2148C37.2681 38.3606 38.4713 39.4778 39.703 40.5664L39.8319 40.6523C39.345 40.996 38.8079 41.2682 38.2206 41.4687C37.6334 41.6692 36.9674 41.7695 36.2226 41.7695ZM59.0389 41.6835C57.3775 41.6835 56.0598 41.1751 55.0858 40.1582C54.1119 39.1412 53.5533 37.9023 53.41 36.4414C53.3814 36.0976 53.3527 35.7181 53.3241 35.3027C53.2955 34.8873 53.2811 34.4791 53.2811 34.0781C53.2811 33.7343 53.2883 33.4049 53.3026 33.0898C53.3169 32.7747 53.3384 32.4596 53.3671 32.1445V32.2304C53.5103 30.3685 53.9973 29.015 54.828 28.1699C55.6587 27.3249 56.7902 26.9023 58.2225 26.9023C59.798 26.9023 61.0298 27.5469 61.9178 28.8359C62.8059 30.125 63.2499 31.1992 63.2499 32.0586H63.9803V26.2148H63.3788C63.2355 26.3581 63.0923 26.4655 62.9491 26.5371C62.8059 26.6087 62.6053 26.6445 62.3475 26.6445C61.6887 26.6445 61.0441 26.5228 60.4139 26.2793C59.7837 26.0358 59.0246 25.914 58.1366 25.914C55.8163 25.914 53.9973 26.7448 52.6796 28.4062C51.3619 30.0677 50.703 32.0729 50.703 34.4218C50.703 36.7994 51.4192 38.8405 52.8514 40.5449C54.2837 42.2493 56.1887 43.1015 58.5663 43.1015C60.1991 43.1015 61.5884 42.679 62.7342 41.8339C63.8801 40.9889 64.7251 39.8216 65.2694 38.332H64.41C63.8657 39.4205 63.1926 40.2513 62.3905 40.8242C61.5884 41.3971 60.4712 41.6835 59.0389 41.6835ZM103.64 31.8008C102.752 31.8008 102 32.0013 101.385 32.4023C100.769 32.8034 100.217 33.4336 99.7303 34.2929L99.3865 32.0586H95.906V32.9179H96.5935C96.7654 32.9179 97.0017 33.0612 97.3025 33.3476C97.6033 33.6341 97.7537 33.8633 97.7537 34.0351V46.0234C97.7537 46.2239 97.6033 46.4674 97.3025 46.7538C97.0017 47.0403 96.7654 47.1835 96.5935 47.1835H95.906V47.9999H101.578V47.1835H100.89C100.747 47.1835 100.518 47.0403 100.203 46.7538C99.8878 46.4674 99.7303 46.2239 99.7303 46.0234V40.8671C100.131 41.5833 100.611 42.1204 101.17 42.4785C101.728 42.8365 102.48 43.0156 103.426 43.0156C104.715 43.0156 105.775 42.4713 106.605 41.3828C107.436 40.2942 107.851 38.9192 107.851 37.2578C107.851 35.625 107.479 34.3073 106.734 33.3047C105.989 32.3021 104.958 31.8008 103.64 31.8008ZM105.789 39.0195C105.674 39.8502 105.388 40.5306 104.929 41.0605C104.471 41.5904 103.784 41.8554 102.867 41.8554C102.838 41.8554 102.824 41.8554 102.824 41.8554C101.965 41.8554 101.234 41.5546 100.633 40.9531C100.031 40.3515 99.7303 39.6354 99.7303 38.8046C99.7303 38.776 99.7303 38.7617 99.7303 38.7617V36.0117C99.9881 35.181 100.389 34.4863 100.933 33.9277C101.478 33.3691 102.194 33.0898 103.082 33.0898C103.855 33.0898 104.471 33.3405 104.929 33.8418C105.388 34.3431 105.674 35.0234 105.789 35.8828C105.817 36.1119 105.846 36.3483 105.875 36.5918C105.903 36.8352 105.918 37.0859 105.918 37.3437C105.918 37.6302 105.903 37.9166 105.875 38.2031C105.846 38.4895 105.817 38.776 105.789 39.0625V39.0195ZM138.187 32.1015V32.9179H138.875C139.018 32.9179 139.211 33.0612 139.455 33.3476C139.698 33.6341 139.806 33.8776 139.777 34.0781L137.414 39.3632L134.836 34.0781C134.836 33.8776 134.957 33.6341 135.201 33.3476C135.444 33.0612 135.638 32.9179 135.781 32.9179H136.425V32.1015H130.625V32.9179H131.14C131.255 32.9179 131.491 33.0755 131.849 33.3906C132.207 33.7057 132.429 33.9492 132.515 34.1211L136.297 41.5546L133.074 47.4413L133.976 47.914L137.199 41.8984L140.808 34.0781C140.923 33.9062 141.131 33.6699 141.431 33.3691C141.732 33.0683 141.94 32.9179 142.054 32.9179H142.57V32.1015H138.187ZM91.3514 41.9843H90.7498V42.8007H96.2498V41.9843H95.6053C95.462 41.9843 95.24 41.8339 94.9392 41.5332C94.6385 41.2324 94.4881 40.996 94.4881 40.8242V34.9375C94.4881 33.9635 94.2016 33.2116 93.6287 32.6816C93.0558 32.1517 92.354 31.8867 91.5232 31.8867C90.6352 31.8867 89.9191 32.1015 89.3748 32.5312C88.8305 32.9609 88.229 33.4909 87.5701 34.1211C87.4555 33.3763 87.1261 32.8105 86.5818 32.4238C86.0376 32.0371 85.4074 31.8437 84.6912 31.8437C83.7459 31.8437 83.0154 32.0657 82.4998 32.5097C81.9842 32.9537 81.4113 33.5052 80.7811 34.164L80.3514 32.1015H77.0428V32.9179H77.6873C77.8306 32.9179 78.0526 33.0612 78.3533 33.3476C78.6541 33.6341 78.8045 33.8633 78.8045 34.0351V40.8242C78.8045 40.996 78.6541 41.2324 78.3533 41.5332C78.0526 41.8339 77.8306 41.9843 77.6873 41.9843H77.0428V42.8007H82.5428V41.9843H81.9412C81.7694 41.9843 81.533 41.8339 81.2322 41.5332C80.9315 41.2324 80.7811 40.996 80.7811 40.8242V35.3242C80.7811 34.9518 81.132 34.4935 81.8338 33.9492C82.5356 33.4049 83.2446 33.1328 83.9608 33.1328C84.5337 33.1328 84.9634 33.2975 85.2498 33.6269C85.5363 33.9563 85.6795 34.3932 85.6795 34.9375V40.8242C85.6795 40.996 85.5291 41.2324 85.2283 41.5332C84.9276 41.8339 84.6912 41.9843 84.5193 41.9843H83.9178V42.8007H89.4178V41.9843H88.7732C88.63 41.9843 88.408 41.8339 88.1072 41.5332C87.8064 41.2324 87.6561 40.996 87.6561 40.8242V35.2382C87.6561 34.8945 88.007 34.4648 88.7088 33.9492C89.4106 33.4336 90.1053 33.1758 90.7928 33.1758C91.3943 33.1758 91.8312 33.3405 92.1033 33.6699C92.3755 33.9993 92.5115 34.4218 92.5115 34.9375V40.8242C92.5115 40.996 92.3611 41.2324 92.0603 41.5332C91.7596 41.8339 91.5232 41.9843 91.3514 41.9843ZM71.7147 31.8008C70.2824 31.8008 69.0291 32.3021 67.9549 33.3047C66.8807 34.3073 66.3436 35.6823 66.3436 37.4296C66.3436 39.177 66.8807 40.5592 67.9549 41.5761C69.0291 42.593 70.2824 43.1015 71.7147 43.1015C73.1183 43.1015 74.3573 42.593 75.4315 41.5761C76.5057 40.5592 77.0428 39.177 77.0428 37.4296C77.0428 35.6823 76.5057 34.3073 75.4315 33.3047C74.3573 32.3021 73.1183 31.8008 71.7147 31.8008ZM74.8944 39.1914C74.7798 40.0221 74.479 40.7024 73.992 41.2324C73.5051 41.7623 72.7459 42.0273 71.7147 42.0273C70.7407 42.0273 70.0031 41.7552 69.5018 41.2109C69.0005 40.6666 68.6926 39.9791 68.578 39.1484C68.5207 38.8906 68.4849 38.6113 68.4706 38.3105C68.4562 38.0097 68.4491 37.7018 68.4491 37.3867C68.4491 37.0716 68.4562 36.7565 68.4706 36.4414C68.4849 36.1263 68.5207 35.8255 68.578 35.539V35.582C68.6926 34.7226 69.0005 34.0351 69.5018 33.5195C70.0031 33.0039 70.7407 32.7461 71.7147 32.7461C72.7173 32.7461 73.4692 33.0039 73.9705 33.5195C74.4718 34.0351 74.7798 34.7369 74.8944 35.625C74.923 35.8828 74.9445 36.1621 74.9588 36.4629C74.9731 36.7636 74.9803 37.0716 74.9803 37.3867C74.9803 37.7018 74.9731 38.0169 74.9588 38.332C74.9445 38.6471 74.923 38.9622 74.8944 39.2773V39.1914ZM130.066 40.8242V34.9375C130.066 34.0208 129.773 33.276 129.185 32.7031C128.598 32.1302 127.889 31.8437 127.058 31.8437C126.084 31.8437 125.297 32.0872 124.695 32.5742C124.093 33.0612 123.478 33.6341 122.847 34.2929L122.418 32.0586H119.023V32.9179H119.668C119.84 32.9179 120.083 33.0612 120.398 33.3476C120.713 33.6341 120.871 33.8633 120.871 34.0351V40.8242C120.871 40.996 120.713 41.2252 120.398 41.5117C120.083 41.7981 119.84 41.9414 119.668 41.9414H118.379C118.235 41.9414 118.006 41.7981 117.691 41.5117C117.376 41.2252 117.218 40.996 117.218 40.8242V35.0664C117.218 34.0065 116.817 33.1972 116.015 32.6386C115.213 32.0801 114.225 31.8008 113.051 31.8008C111.962 31.8008 111.06 31.9726 110.344 32.3164C109.627 32.6601 109.04 33.0612 108.582 33.5195L110.043 35.6679H110.816C110.415 34.7513 110.379 34.0065 110.709 33.4336C111.038 32.8606 111.661 32.5742 112.578 32.5742C113.552 32.5742 114.239 32.7962 114.64 33.2402C115.041 33.6842 115.242 34.2786 115.242 35.0234L115.199 36.3125L112.406 36.8711C111.661 37.0429 110.895 37.3509 110.107 37.7949C109.319 38.2389 108.926 39.0052 108.926 40.0937C108.926 40.9531 109.198 41.6549 109.742 42.1992C110.286 42.7434 110.931 43.0156 111.676 43.0156C112.478 43.0156 113.165 42.7506 113.738 42.2207C114.311 41.6907 114.812 41.1393 115.242 40.5664L115.543 42.8007H124.652V41.9843H124.051C123.879 41.9843 123.635 41.8411 123.32 41.5546C123.005 41.2682 122.847 41.0247 122.847 40.8242V35.4101C122.847 35.0664 123.241 34.608 124.029 34.0351C124.817 33.4622 125.597 33.1758 126.371 33.1758C126.944 33.1758 127.366 33.3548 127.638 33.7129C127.911 34.0709 128.047 34.5078 128.047 35.0234V40.8242C128.047 40.996 127.889 41.2324 127.574 41.5332C127.259 41.8339 127.03 41.9843 126.886 41.9843H126.242V42.8007H131.871V41.9843H131.226C131.083 41.9843 130.854 41.8339 130.539 41.5332C130.224 41.2324 130.066 40.996 130.066 40.8242ZM115.242 39.6211C115.013 40.0221 114.64 40.4375 114.125 40.8671C113.609 41.2968 113.094 41.5117 112.578 41.5117C112.578 41.5117 112.571 41.5117 112.556 41.5117C112.542 41.5117 112.521 41.5117 112.492 41.5117C112.034 41.5117 111.647 41.347 111.332 41.0175C111.017 40.6881 110.859 40.2942 110.859 39.8359C110.859 39.8359 110.859 39.8287 110.859 39.8144C110.859 39.8001 110.859 39.7929 110.859 39.7929C110.859 39.2773 110.988 38.8405 111.246 38.4824C111.504 38.1243 111.976 37.8593 112.664 37.6875L115.242 37.0429V39.6211ZM78.4178 20.8437C79.7355 20.8437 80.7668 20.5072 81.5115 19.834C82.2563 19.1608 82.8006 18.237 83.1443 17.0625H82.4998C82.1561 17.6641 81.7335 18.1224 81.2322 18.4375C80.7309 18.7526 80.022 18.9102 79.1053 18.9102C77.9022 18.9102 76.9569 18.459 76.2694 17.5566C75.5819 16.6543 75.2381 15.7162 75.2381 14.7422L82.3709 14.1406L82.3279 13.3672C82.2707 12.336 81.9054 11.4551 81.2322 10.7246C80.5591 9.99416 79.6209 9.62893 78.4178 9.62893C77.0142 9.60028 75.8397 10.1302 74.8944 11.2188C73.9491 12.3073 73.4764 13.6537 73.4764 15.2578C73.4764 16.776 73.9419 18.0866 74.8729 19.1895C75.8039 20.2923 76.9855 20.8437 78.4178 20.8437ZM78.3748 10.4453C79.4061 10.4453 80.0434 10.7676 80.2869 11.4121C80.5304 12.0567 80.6092 12.7656 80.5233 13.5391L75.1522 13.9688C75.1808 13.138 75.4458 12.3431 75.9471 11.584C76.4484 10.8249 77.2576 10.4453 78.3748 10.4453ZM84.1756 11.9063L87.9568 19.3828L84.6912 25.2695L85.6365 25.7422L88.8162 19.6836L92.4686 11.9063C92.5545 11.7057 92.7478 11.4551 93.0486 11.1543C93.3494 10.8535 93.5714 10.7031 93.7146 10.7031H94.1873V9.88674H89.8475V10.7031H90.535C90.6782 10.7031 90.8716 10.8464 91.115 11.1328C91.3585 11.4193 91.466 11.6771 91.4373 11.9063L89.074 17.1484L86.4959 11.8633C86.4959 11.6628 86.6105 11.4193 86.8397 11.1328C87.0688 10.8464 87.255 10.7031 87.3982 10.7031H88.0857V9.88674H82.285V10.7031H82.7576C82.9009 10.7031 83.1515 10.8607 83.5096 11.1758C83.8677 11.4909 84.0897 11.7344 84.1756 11.9063ZM48.1249 7.26565C48.1535 7.26565 48.1679 7.26565 48.1679 7.26565C48.1679 7.26565 48.1822 7.26565 48.2108 7.26565C48.5546 7.26565 48.8625 7.13675 49.1347 6.87893C49.4068 6.62112 49.5429 6.30602 49.5429 5.93362C49.5429 5.93362 49.5429 5.92646 49.5429 5.91214C49.5429 5.89782 49.5285 5.89066 49.4999 5.89066H49.5429C49.5429 5.46097 49.4068 5.12438 49.1347 4.88089C48.8625 4.6374 48.5259 4.51566 48.1249 4.51566C47.7239 4.51566 47.3873 4.6374 47.1151 4.88089C46.843 5.12438 46.7069 5.46097 46.7069 5.89066C46.7069 5.89066 46.7069 5.89782 46.7069 5.91214C46.7069 5.92646 46.7069 5.93362 46.7069 5.93362C46.7069 6.30602 46.843 6.62112 47.1151 6.87893C47.3873 7.13675 47.7095 7.26565 48.0819 7.26565C48.0819 7.26565 48.0891 7.26565 48.1034 7.26565C48.1177 7.26565 48.1249 7.26565 48.1249 7.26565ZM36.0937 19.7695H35.2773C35.1054 19.7695 34.8476 19.6048 34.5038 19.2754C34.1601 18.946 33.9882 18.6953 33.9882 18.5234V14.0977L35.664 12.293L41.4218 20.5859H56.8046V19.7695H56.203C56.0311 19.7695 55.7876 19.6263 55.4725 19.3398C55.1574 19.0534 54.9999 18.8099 54.9999 18.6094V13.2383C54.9999 12.8659 55.3938 12.4004 56.1815 11.8418C56.9693 11.2832 57.7499 11.0039 58.5233 11.0039C59.0962 11.0039 59.5259 11.1758 59.8124 11.5196C60.0988 11.8633 60.2421 12.3073 60.2421 12.8516V18.6094C60.2421 18.8099 60.0845 19.0534 59.7694 19.3398C59.4543 19.6263 59.2108 19.7695 59.0389 19.7695H58.4374V20.5859H64.0663V19.7695H63.3788C63.2355 19.7695 63.0064 19.6263 62.6913 19.3398C62.3762 19.0534 62.2186 18.8099 62.2186 18.6094V12.7227C62.2186 11.806 61.925 11.0612 61.3378 10.4883C60.7505 9.91539 60.0415 9.62893 59.2108 9.62893C58.2655 9.62893 57.4849 9.87242 56.869 10.3594C56.2531 10.8464 55.6301 11.4193 54.9999 12.0781L54.5702 9.88674H51.1757V10.7031H51.8632C52.0064 10.7031 52.2356 10.8464 52.5507 11.1328C52.8658 11.4193 53.0233 11.6485 53.0233 11.8203V18.6094C53.0233 18.8099 52.8658 19.0534 52.5507 19.3398C52.2356 19.6263 52.0064 19.7695 51.8632 19.7695H50.5311C50.3879 19.7695 50.1516 19.6263 49.8222 19.3398C49.4927 19.0534 49.328 18.8099 49.328 18.6094V9.88674H45.5038V10.7031H46.1483C46.3202 10.7031 46.5637 10.8464 46.8788 11.1328C47.1939 11.4193 47.3515 11.6485 47.3515 11.8203V18.6094C47.3515 18.8099 47.1939 19.0534 46.8788 19.3398C46.5637 19.6263 46.3202 19.7695 46.1483 19.7695H44.9452C44.7733 19.7695 44.4368 19.5833 43.9355 19.2109C43.4342 18.8385 43.1119 18.5521 42.9687 18.3516L37.1679 10.6602L41.2069 6.32034C41.3215 6.20576 41.6653 5.92646 42.2382 5.48245C42.8111 5.03844 43.1692 4.81644 43.3124 4.81644H44.1288V4.00003H38.1132V4.81644H38.9296C39.0728 4.81644 39.302 5.01696 39.6171 5.418C39.9322 5.81904 40.0325 6.09118 39.9179 6.23441L33.9882 12.8516V6.06253C33.9882 5.89066 34.1601 5.64 34.5038 5.31058C34.8476 4.98115 35.1054 4.81644 35.2773 4.81644H36.0937V4.00003H29.6054V4.81644H30.4218C30.5937 4.81644 30.8515 4.98115 31.1952 5.31058C31.539 5.64 31.7109 5.89066 31.7109 6.06253V18.5234C31.7109 18.6953 31.539 18.946 31.1952 19.2754C30.8515 19.6048 30.5937 19.7695 30.4218 19.7695H29.6054V20.5859H36.0937V19.7695ZM72.617 17.5781C72.617 16.7188 72.3449 16.0456 71.8006 15.5586C71.2564 15.0716 70.6978 14.7136 70.1248 14.4844C69.6952 14.3125 69.3013 14.155 68.9432 14.0117C68.5851 13.8685 68.2056 13.7109 67.8045 13.5391C67.2603 13.2813 66.8306 13.0378 66.5155 12.8086C66.2004 12.5794 66.0428 12.2357 66.0428 11.7774C66.0428 11.3763 66.1932 11.0469 66.494 10.7891C66.7948 10.5313 67.2603 10.4024 67.8905 10.4024C68.8931 10.4024 69.688 10.7604 70.2752 11.4766C70.8625 12.1927 71.1561 12.7656 71.1561 13.1953H71.8006V9.88674H71.242C71.1847 10.0013 71.106 10.0801 71.0057 10.1231C70.9054 10.166 70.7837 10.1875 70.6405 10.1875C70.2394 10.1875 69.8456 10.0944 69.4588 9.90823C69.0721 9.72203 68.578 9.62893 67.9764 9.62893C66.9738 9.62893 66.1861 9.87958 65.6131 10.3809C65.0402 10.8822 64.7538 11.6198 64.7538 12.5938C64.7538 13.3386 64.9686 13.933 65.3983 14.377C65.828 14.821 66.3723 15.2005 67.0311 15.5156C67.4608 15.6875 67.8403 15.8451 68.1698 15.9883C68.4992 16.1315 68.8644 16.2891 69.2655 16.4609C69.7238 16.6615 70.175 16.8978 70.619 17.1699C71.063 17.4421 71.285 17.8789 71.285 18.4805C71.285 18.9961 71.0988 19.3685 70.7264 19.5977C70.354 19.8268 69.8384 19.9414 69.1795 19.9414C68.0051 19.9414 67.0812 19.5404 66.4081 18.7383C65.7349 17.9362 65.3983 17.2917 65.3983 16.8047H64.7538V20.5859H65.2694C65.4126 20.4714 65.5272 20.3783 65.6131 20.3066C65.6991 20.235 65.8566 20.1992 66.0858 20.1992C66.5441 20.1992 67.0025 20.3066 67.4608 20.5215C67.9191 20.7363 68.492 20.8437 69.1795 20.8437C70.1821 20.8437 71.0057 20.5573 71.6502 19.9844C72.2948 19.4115 72.617 18.6094 72.617 17.5781ZM25.4374 18.9102C24.2057 18.9102 23.2389 18.4948 22.5371 17.6641C21.8352 16.8333 21.4843 15.8164 21.4843 14.6133C21.4843 13.3529 21.7421 12.336 22.2578 11.5625C22.7734 10.7891 23.5611 10.4024 24.621 10.4024C25.5377 10.4024 26.1106 10.7246 26.3398 11.3692C26.569 12.0137 26.6119 12.7513 26.4687 13.582L27.1132 13.5391L28.7031 11.0899C28.1874 10.6029 27.6288 10.2305 27.0273 9.97268C26.4257 9.71487 25.7096 9.58596 24.8789 9.58596C23.4752 9.58596 22.2721 10.1016 21.2695 11.1328C20.2669 12.1641 19.7656 13.5534 19.7656 15.3008C19.7656 16.819 20.2096 18.1224 21.0976 19.2109C21.9856 20.2995 23.1744 20.8437 24.664 20.8437C26.0104 20.8437 27.0631 20.5 27.8222 19.8125C28.5813 19.125 29.1471 18.194 29.5195 17.0195H28.832C28.4596 17.6497 28.0299 18.1224 27.5429 18.4375C27.0559 18.7526 26.3541 18.9102 25.4374 18.9102ZM9.92576 16.418H9.79685L4.81249 4.00003H0V4.81644H0.816404C0.988279 4.81644 1.24609 4.98115 1.58984 5.31058C1.93359 5.64 2.10546 5.89066 2.10546 6.06253V18.5234C2.10546 18.6953 1.93359 18.946 1.58984 19.2754C1.24609 19.6048 0.988279 19.7695 0.816404 19.7695H0V20.5859H5.15624V19.7695H4.33983C4.19661 19.7695 3.95312 19.6048 3.60937 19.2754C3.26562 18.946 3.09374 18.6953 3.09374 18.5234V6.19144L9.10935 20.8867L15.125 6.44925V18.5234C15.125 18.6953 14.9531 18.946 14.6093 19.2754C14.2656 19.6048 14.0221 19.7695 13.8789 19.7695H13.0625V20.5859H19.4648V19.7695H18.6484C18.5052 19.7695 18.2545 19.6048 17.8964 19.2754C17.5384 18.946 17.3593 18.6953 17.3593 18.5234V6.06253C17.3593 5.89066 17.5384 5.64 17.8964 5.31058C18.2545 4.98115 18.5052 4.81644 18.6484 4.81644H19.4648V4.00003H15.125L9.92576 16.418Z" fill="white"/>
</svg>
