<svg width="32" height="33" viewBox="0 0 32 33" fill="none" xmlns="http://www.w3.org/2000/svg">
<path d="M13.2188 1.56873C14.9271 1.56873 16.5312 1.88123 18.0312 2.50623C19.5104 3.15206 20.8073 4.02706 21.9219 5.13123C23.0365 6.23539 23.9062 7.53748 24.5312 9.03748C25.1771 10.5166 25.5 12.1104 25.5 13.8187C25.5 15.4229 25.2188 16.9333 24.6562 18.35C24.0938 19.7666 23.3021 21.0271 22.2812 22.1312L31.0312 30.8812L30.2812 31.6312L21.5312 22.8812C20.4688 23.9021 19.2188 24.6937 17.7812 25.2562C16.3438 25.8187 14.8229 26.1 13.2188 26.1C11.5104 26.1 9.91667 25.7771 8.4375 25.1312C6.9375 24.4854 5.63542 23.6052 4.53125 22.4906C3.42708 21.376 2.55208 20.0687 1.90625 18.5687C1.28125 17.0896 0.96875 15.5062 0.96875 13.8187C0.96875 12.1521 1.28125 10.5687 1.90625 9.06873C2.55208 7.58956 3.42708 6.29268 4.53125 5.1781C5.63542 4.06352 6.9375 3.18331 8.4375 2.53748C9.91667 1.89164 11.5104 1.56873 13.2188 1.56873ZM13.2188 2.63123C11.6771 2.63123 10.2292 2.92289 8.875 3.50623C7.5 4.08956 6.30729 4.88643 5.29688 5.89685C4.28646 6.90727 3.48958 8.09998 2.90625 9.47498C2.32292 10.8291 2.03125 12.2771 2.03125 13.8187C2.03125 15.3604 2.32292 16.8187 2.90625 18.1937C3.48958 19.5479 4.28646 20.7302 5.29688 21.7406C6.30729 22.751 7.5 23.5479 8.875 24.1312C10.2292 24.7354 11.6771 25.0375 13.2188 25.0375C14.7604 25.0375 16.2188 24.7354 17.5938 24.1312C18.9479 23.5479 20.1302 22.751 21.1406 21.7406C22.151 20.7302 22.9479 19.5479 23.5312 18.1937C24.1354 16.8187 24.4375 15.3604 24.4375 13.8187C24.4375 12.2771 24.1354 10.8291 23.5312 9.47498C22.9479 8.09998 22.151 6.90727 21.1406 5.89685C20.1302 4.88643 18.9479 4.08956 17.5938 3.50623C16.2188 2.92289 14.7604 2.63123 13.2188 2.63123Z" fill="white"/>
</svg>
