<svg width="120" height="41" viewBox="0 0 120 41" fill="none" xmlns="http://www.w3.org/2000/svg">
<path d="M110.12 0.199837H9.54524C9.17863 0.199837 8.81642 0.199837 8.45078 0.201836C8.14471 0.203836 7.84107 0.209645 7.53206 0.214533C6.86074 0.222433 6.191 0.281493 5.52866 0.391199C4.86725 0.503294 4.22656 0.714624 3.62826 1.01804C3.03068 1.32403 2.48467 1.72162 2.01001 2.19641C1.53286 2.66986 1.13512 3.2171 0.832085 3.81709C0.528211 4.41589 0.317504 5.05756 0.207241 5.71994C0.0959296 6.38148 0.0360321 7.05064 0.0280857 7.72144C0.018808 8.02796 0.0178282 8.3355 0.0129395 8.64207V31.7505C0.0178282 32.061 0.018808 32.3617 0.0280857 32.6722C0.0360345 33.343 0.0959321 34.0121 0.207241 34.6736C0.317199 35.3364 0.527919 35.9784 0.832085 36.5774C1.13498 37.1755 1.53278 37.7205 2.01001 38.1913C2.48287 38.6682 3.02924 39.0661 3.62826 39.3697C4.22655 39.674 4.86718 39.8866 5.52866 40.0004C6.19111 40.1092 6.86078 40.1683 7.53206 40.1771C7.84107 40.1839 8.14471 40.1878 8.45078 40.1878C8.81641 40.1898 9.17865 40.1898 9.54524 40.1898H110.12C110.479 40.1898 110.845 40.1898 111.204 40.1878C111.509 40.1878 111.821 40.1839 112.126 40.1771C112.796 40.1688 113.464 40.1097 114.125 40.0004C114.789 39.8858 115.432 39.6732 116.033 39.3697C116.631 39.0659 117.177 38.6681 117.65 38.1913C118.126 37.7187 118.524 37.174 118.831 36.5774C119.133 35.978 119.341 35.336 119.45 34.6736C119.561 34.012 119.623 33.343 119.635 32.6722C119.639 32.3617 119.639 32.061 119.639 31.7505C119.647 31.3873 119.647 31.0261 119.647 30.657V9.73358C119.647 9.36746 119.647 9.00428 119.639 8.64207C119.639 8.3355 119.639 8.02796 119.635 7.7214C119.623 7.05055 119.561 6.38153 119.45 5.7199C119.341 5.0579 119.132 4.41629 118.831 3.81705C118.214 2.61443 117.235 1.6355 116.033 1.01795C115.432 0.715275 114.789 0.504001 114.125 0.391109C113.464 0.28092 112.796 0.221839 112.126 0.214393C111.821 0.209515 111.509 0.203656 111.204 0.201707C110.845 0.199707 110.479 0.199837 110.12 0.199837Z" fill="#A6A6A6"/>
<path d="M8.45591 39.3151C8.15131 39.3151 7.85406 39.3112 7.55185 39.3044C6.92579 39.2963 6.30119 39.2418 5.68318 39.1414C5.10691 39.0421 4.54866 38.8575 4.02685 38.5936C3.50982 38.3319 3.03825 37.9888 2.6302 37.5773C2.21624 37.1707 1.87161 36.699 1.60995 36.1811C1.3454 35.6598 1.16232 35.1011 1.06708 34.5243C0.964231 33.9046 0.908585 33.278 0.900623 32.6498C0.894284 32.439 0.885986 31.7369 0.885986 31.7369V8.64215C0.885986 8.64215 0.894824 7.95092 0.900673 7.74784C0.908297 7.12068 0.963619 6.495 1.06616 5.87624C1.16158 5.2979 1.3448 4.73754 1.60949 4.21455C1.87019 3.697 2.21291 3.22503 2.62437 2.81695C3.03537 2.405 3.50845 2.06006 4.02636 1.79474C4.54698 1.53169 5.10417 1.34837 5.67927 1.25093C6.29931 1.14952 6.92608 1.0947 7.55431 1.08691L8.4564 1.07471H111.199L112.112 1.0874C112.735 1.0948 113.356 1.14914 113.97 1.24995C114.551 1.34861 115.114 1.53321 115.641 1.79767C116.678 2.33238 117.522 3.17834 118.055 4.21699C118.315 4.73637 118.496 5.29216 118.59 5.8655C118.694 6.48934 118.752 7.11993 118.764 7.75224C118.767 8.03537 118.767 8.33949 118.767 8.64215C118.775 9.01706 118.775 9.3739 118.775 9.73367V30.6571C118.775 31.0203 118.775 31.3747 118.767 31.732C118.767 32.0572 118.767 32.355 118.763 32.6615C118.751 33.2825 118.694 33.9019 118.592 34.5145C118.499 35.0955 118.317 35.6586 118.052 36.1841C117.789 36.6964 117.446 37.1639 117.037 37.5695C116.628 37.9832 116.156 38.3283 115.638 38.5917C115.113 38.8577 114.55 39.043 113.97 39.1414C113.352 39.2423 112.727 39.2968 112.101 39.3044C111.809 39.3112 111.502 39.3151 111.204 39.3151L110.12 39.3171L8.45591 39.3151Z" fill="black"/>
<path d="M24.7757 20.4955C24.7864 19.6611 25.0081 18.8429 25.42 18.1171C25.8319 17.3914 26.4207 16.7816 27.1316 16.3445C26.68 15.6995 26.0842 15.1687 25.3916 14.7942C24.6989 14.4198 23.9285 14.212 23.1415 14.1874C21.4627 14.0111 19.8351 15.1919 18.9796 15.1919C18.1076 15.1919 16.7904 14.2049 15.372 14.234C14.4546 14.2637 13.5605 14.5305 12.7768 15.0084C11.9931 15.4863 11.3466 16.1591 10.9002 16.9612C8.9667 20.3088 10.4089 25.2286 12.2611 27.9346C13.1877 29.2596 14.2708 30.7397 15.6879 30.6872C17.0746 30.6297 17.5925 29.8029 19.2664 29.8029C20.9247 29.8029 21.4106 30.6872 22.8565 30.6538C24.3445 30.6297 25.282 29.3229 26.1761 27.9853C26.8419 27.0412 27.3543 25.9977 27.6942 24.8936C26.8297 24.528 26.092 23.9159 25.573 23.1338C25.054 22.3517 24.7767 21.4342 24.7757 20.4955Z" fill="white"/>
<path d="M22.0447 12.4077C22.856 11.4338 23.2557 10.1819 23.1589 8.91797C21.9194 9.04816 20.7744 9.64057 19.9522 10.5772C19.5501 11.0347 19.2422 11.567 19.046 12.1436C18.8498 12.7203 18.7692 13.3299 18.8087 13.9377C19.4287 13.9441 20.0421 13.8097 20.6026 13.5447C21.1631 13.2797 21.6562 12.8909 22.0447 12.4077Z" fill="white"/>
<path d="M42.3047 27.3327H37.5725L36.436 30.6883H34.4316L38.9139 18.2734H40.9964L45.4787 30.6883H43.4401L42.3047 27.3327ZM38.0626 25.7843H41.8136L39.9645 20.3384H39.9127L38.0626 25.7843Z" fill="white"/>
<path d="M55.1589 26.1631C55.1589 28.9759 53.6534 30.7831 51.3815 30.7831C50.806 30.8132 50.2337 30.6806 49.73 30.4005C49.2263 30.1205 48.8117 29.7042 48.5336 29.1995H48.4906V33.6827H46.6327V21.6369H48.4311V23.1424H48.4653C48.7562 22.64 49.1778 22.226 49.6853 21.9442C50.1928 21.6624 50.7672 21.5235 51.3474 21.5422C53.6446 21.5422 55.1589 23.3582 55.1589 26.1631ZM53.2492 26.1631C53.2492 24.3306 52.3022 23.1258 50.8572 23.1258C49.4377 23.1258 48.4828 24.356 48.4828 26.1631C48.4828 27.9869 49.4377 29.2083 50.8572 29.2083C52.3022 29.2083 53.2492 28.0123 53.2492 26.1631Z" fill="white"/>
<path d="M65.1212 26.1631C65.1212 28.9759 63.6157 30.783 61.3438 30.783C60.7683 30.8132 60.1959 30.6806 59.6923 30.4005C59.1886 30.1204 58.774 29.7042 58.4959 29.1994H58.4529V33.6827H56.595V21.6369H58.3933V23.1424H58.4275C58.7184 22.64 59.14 22.226 59.6475 21.9442C60.155 21.6624 60.7294 21.5235 61.3096 21.5422C63.6069 21.5422 65.1212 23.3581 65.1212 26.1631ZM63.2115 26.1631C63.2115 24.3306 62.2645 23.1258 60.8195 23.1258C59.4 23.1258 58.4451 24.3559 58.4451 26.1631C58.4451 27.9869 59.4 29.2082 60.8195 29.2082C62.2645 29.2082 63.2115 28.0123 63.2115 26.1631Z" fill="white"/>
<path d="M71.7055 27.2292C71.8432 28.4603 73.0392 29.2687 74.6735 29.2687C76.2395 29.2687 77.3662 28.4603 77.3662 27.3502C77.3662 26.3866 76.6867 25.8096 75.0777 25.4142L73.4687 25.0266C71.189 24.4759 70.1307 23.4098 70.1307 21.6798C70.1307 19.5377 71.9974 18.0664 74.6481 18.0664C77.2715 18.0664 79.0699 19.5377 79.1304 21.6798H77.2549C77.1426 20.4408 76.1184 19.693 74.6217 19.693C73.125 19.693 72.1009 20.4496 72.1009 21.5509C72.1009 22.4286 72.755 22.9451 74.3552 23.3404L75.723 23.6763C78.2702 24.2787 79.3286 25.3019 79.3286 27.1178C79.3286 29.4405 77.4784 30.8952 74.5358 30.8952C71.7826 30.8952 69.9237 29.4747 69.8036 27.2291L71.7055 27.2292Z" fill="white"/>
<path d="M83.3383 19.4946V21.6367H85.0596V23.108H83.3383V28.0979C83.3383 28.8731 83.683 29.2344 84.4396 29.2344C84.6439 29.2308 84.8479 29.2165 85.0508 29.1914V30.6539C84.7106 30.7175 84.3648 30.7463 84.0188 30.7398C82.1863 30.7398 81.4716 30.0515 81.4716 28.2961V23.108H80.1555V21.6367H81.4716V19.4946H83.3383Z" fill="white"/>
<path d="M86.0565 26.1629C86.0565 23.315 87.7338 21.5254 90.3494 21.5254C92.9737 21.5254 94.6432 23.3149 94.6432 26.1629C94.6432 29.0186 92.9825 30.8004 90.3494 30.8004C87.7172 30.8004 86.0565 29.0186 86.0565 26.1629ZM92.7501 26.1629C92.7501 24.2093 91.8549 23.0563 90.3494 23.0563C88.8439 23.0563 87.9496 24.2181 87.9496 26.1629C87.9496 28.1243 88.8439 29.2686 90.3494 29.2686C91.8549 29.2686 92.7501 28.1243 92.7501 26.1629Z" fill="white"/>
<path d="M96.1749 21.6368H97.947V23.1774H97.9899C98.1098 22.6963 98.3917 22.271 98.7882 21.9732C99.1847 21.6754 99.6716 21.5232 100.167 21.5421C100.381 21.5414 100.595 21.5646 100.804 21.6114V23.3493C100.533 23.2667 100.251 23.2287 99.9689 23.237C99.699 23.226 99.4299 23.2736 99.1801 23.3765C98.9303 23.4794 98.7058 23.6351 98.5219 23.8329C98.3379 24.0307 98.199 24.266 98.1146 24.5226C98.0302 24.7792 98.0023 25.0511 98.0329 25.3195V30.6883H96.1749L96.1749 21.6368Z" fill="white"/>
<path d="M109.37 28.0296C109.12 29.6728 107.52 30.8004 105.472 30.8004C102.839 30.8004 101.205 29.0362 101.205 26.2059C101.205 23.3667 102.848 21.5254 105.394 21.5254C107.899 21.5254 109.473 23.2457 109.473 25.9901V26.6267H103.08V26.7389C103.051 27.072 103.093 27.4076 103.203 27.7234C103.313 28.0391 103.489 28.3279 103.719 28.5703C103.95 28.8128 104.229 29.0035 104.539 29.1298C104.848 29.2561 105.181 29.315 105.515 29.3027C105.954 29.3439 106.395 29.2422 106.772 29.0128C107.148 28.7834 107.441 28.4386 107.606 28.0296L109.37 28.0296ZM103.089 25.3281H107.614C107.631 25.0286 107.586 24.7289 107.481 24.4478C107.376 24.1666 107.215 23.9101 107.006 23.6944C106.798 23.4787 106.547 23.3084 106.27 23.1942C105.992 23.08 105.694 23.0244 105.394 23.0309C105.092 23.0291 104.792 23.0872 104.512 23.2019C104.232 23.3166 103.977 23.4857 103.763 23.6992C103.549 23.9128 103.379 24.1667 103.263 24.4463C103.148 24.7259 103.088 25.0256 103.089 25.3281Z" fill="white"/>
<path d="M37.8297 8.92864C38.2192 8.90069 38.61 8.95954 38.9741 9.10093C39.3381 9.24233 39.6662 9.46276 39.9347 9.74631C40.2032 10.0299 40.4055 10.3695 40.5268 10.7407C40.6482 11.1118 40.6857 11.5053 40.6366 11.8927C40.6366 13.7985 39.6066 14.894 37.8297 14.894H35.6749V8.92864H37.8297ZM36.6014 14.0504H37.7262C38.0045 14.067 38.283 14.0214 38.5415 13.9168C38.8 13.8122 39.0319 13.6513 39.2203 13.4458C39.4088 13.2403 39.549 12.9953 39.6309 12.7288C39.7127 12.4622 39.7341 12.1808 39.6934 11.9049C39.7311 11.6301 39.7076 11.3504 39.6245 11.0858C39.5414 10.8212 39.4008 10.5783 39.2128 10.3744C39.0248 10.1705 38.794 10.0108 38.537 9.90656C38.28 9.80235 38.0031 9.75628 37.7262 9.77164H36.6014V14.0504Z" fill="white"/>
<path d="M41.6831 12.641C41.6548 12.3451 41.6887 12.0466 41.7825 11.7646C41.8763 11.4826 42.028 11.2234 42.2279 11.0034C42.4278 10.7835 42.6715 10.6078 42.9433 10.4875C43.215 10.3673 43.5089 10.3052 43.8061 10.3052C44.1033 10.3052 44.3973 10.3673 44.669 10.4875C44.9408 10.6078 45.1845 10.7835 45.3844 11.0034C45.5843 11.2234 45.736 11.4826 45.8298 11.7646C45.9236 12.0466 45.9574 12.3451 45.9291 12.641C45.958 12.9371 45.9245 13.236 45.831 13.5185C45.7374 13.8009 45.5858 14.0607 45.3858 14.281C45.1859 14.5014 44.9421 14.6775 44.67 14.798C44.3979 14.9185 44.1037 14.9808 43.8061 14.9808C43.5086 14.9808 43.2143 14.9185 42.9423 14.798C42.6702 14.6775 42.4264 14.5014 42.2264 14.281C42.0265 14.0607 41.8749 13.8009 41.7813 13.5185C41.6877 13.236 41.6543 12.9371 41.6831 12.641ZM45.0153 12.641C45.0153 11.6651 44.5769 11.0945 43.8076 11.0945C43.0353 11.0945 42.6009 11.6651 42.6009 12.641C42.6009 13.6246 43.0354 14.1909 43.8076 14.1909C44.577 14.1909 45.0153 13.6207 45.0153 12.641Z" fill="white"/>
<path d="M51.5733 14.8939H50.6517L49.7213 11.5783H49.651L48.7244 14.8939H47.8116L46.5707 10.3921H47.4718L48.2783 13.8272H48.3447L49.2702 10.3921H50.1225L51.0481 13.8272H51.1184L51.9209 10.3921H52.8093L51.5733 14.8939Z" fill="white"/>
<path d="M53.853 10.3921H54.7083V11.1073H54.7747C54.8873 10.8504 55.0773 10.6351 55.3181 10.4913C55.5589 10.3475 55.8385 10.2825 56.1181 10.3052C56.3371 10.2887 56.5571 10.3218 56.7616 10.4018C56.9662 10.4819 57.1501 10.607 57.2997 10.7678C57.4494 10.9286 57.5609 11.121 57.6261 11.3308C57.6913 11.5406 57.7084 11.7623 57.6763 11.9796V14.8939H56.7878V12.2027C56.7878 11.4792 56.4735 11.1195 55.8164 11.1195C55.6677 11.1125 55.5192 11.1379 55.3812 11.1937C55.2432 11.2495 55.1189 11.3345 55.0168 11.4428C54.9147 11.5512 54.8372 11.6804 54.7897 11.8215C54.7422 11.9625 54.7257 12.1122 54.7415 12.2603V14.8939H53.853L53.853 10.3921Z" fill="white"/>
<path d="M59.0919 8.63477H59.9804V14.8939H59.0919V8.63477Z" fill="white"/>
<path d="M61.2155 12.6411C61.1872 12.3452 61.221 12.0467 61.3149 11.7647C61.4087 11.4827 61.5605 11.2234 61.7604 11.0034C61.9603 10.7835 62.204 10.6078 62.4758 10.4875C62.7476 10.3673 63.0415 10.3052 63.3387 10.3052C63.6359 10.3052 63.9299 10.3673 64.2017 10.4875C64.4735 10.6078 64.7171 10.7835 64.917 11.0034C65.117 11.2234 65.2687 11.4827 65.3625 11.7647C65.4564 12.0467 65.4902 12.3452 65.462 12.6411C65.4908 12.9372 65.4573 13.2361 65.3637 13.5186C65.2701 13.801 65.1184 14.0608 64.9185 14.2811C64.7185 14.5015 64.4747 14.6776 64.2026 14.7981C63.9305 14.9186 63.6363 14.9808 63.3387 14.9808C63.0412 14.9808 62.7469 14.9186 62.4748 14.7981C62.2028 14.6776 61.9589 14.5015 61.7589 14.2811C61.559 14.0608 61.4073 13.801 61.3137 13.5186C61.2201 13.2361 61.1867 12.9372 61.2155 12.6411ZM64.5476 12.6411C64.5476 11.6652 64.1093 11.0946 63.3399 11.0946C62.5677 11.0946 62.1332 11.6652 62.1332 12.6411C62.1332 13.6247 62.5677 14.191 63.3399 14.191C64.1093 14.191 64.5476 13.6208 64.5476 12.6411Z" fill="white"/>
<path d="M66.3972 13.6207C66.3972 12.8104 67.0006 12.3432 68.0716 12.2768L69.291 12.2066V11.818C69.291 11.3425 68.9766 11.074 68.3694 11.074C67.8734 11.074 67.5298 11.2561 67.4311 11.5744H66.571C66.6618 10.8011 67.3892 10.3052 68.4104 10.3052C69.539 10.3052 70.1756 10.867 70.1756 11.818V14.8939H69.3203V14.2612H69.25C69.1073 14.4882 68.907 14.6732 68.6694 14.7973C68.4319 14.9215 68.1656 14.9804 67.8978 14.968C67.7088 14.9877 67.5178 14.9675 67.3371 14.9089C67.1564 14.8502 66.99 14.7543 66.8486 14.6273C66.7072 14.5004 66.594 14.3452 66.5163 14.1719C66.4385 13.9985 66.398 13.8108 66.3972 13.6207ZM69.291 13.2361V12.8597L68.1917 12.93C67.5717 12.9715 67.2905 13.1824 67.2905 13.5792C67.2905 13.9844 67.642 14.2202 68.1253 14.2202C68.2669 14.2345 68.41 14.2202 68.546 14.1782C68.6819 14.1361 68.808 14.0671 68.9168 13.9753C69.0256 13.8834 69.1147 13.7707 69.179 13.6437C69.2433 13.5167 69.2814 13.3781 69.291 13.2361Z" fill="white"/>
<path d="M71.3433 12.6411C71.3433 11.2186 72.0745 10.3175 73.2119 10.3175C73.4933 10.3045 73.7725 10.3719 74.017 10.5117C74.2614 10.6516 74.461 10.8582 74.5924 11.1073H74.6588V8.63477H75.5473V14.8939H74.6959V14.1827H74.6257C74.4841 14.4301 74.2775 14.6341 74.0283 14.7725C73.7791 14.911 73.4968 14.9786 73.2119 14.9681C72.0667 14.9682 71.3433 14.067 71.3433 12.6411ZM72.261 12.6411C72.261 13.5959 72.7111 14.1705 73.4639 14.1705C74.2127 14.1705 74.6755 13.5877 74.6755 12.645C74.6755 11.7068 74.2078 11.1156 73.4639 11.1156C72.716 11.1156 72.261 11.6941 72.261 12.6411Z" fill="white"/>
<path d="M79.2231 12.641C79.1948 12.3451 79.2286 12.0466 79.3224 11.7646C79.4162 11.4826 79.5679 11.2234 79.7678 11.0034C79.9677 10.7835 80.2114 10.6078 80.4832 10.4875C80.7549 10.3673 81.0489 10.3052 81.3461 10.3052C81.6433 10.3052 81.9372 10.3673 82.209 10.4875C82.4807 10.6078 82.7244 10.7835 82.9243 11.0034C83.1242 11.2234 83.2759 11.4826 83.3697 11.7646C83.4635 12.0466 83.4974 12.3451 83.4691 12.641C83.4979 12.9371 83.4645 13.236 83.3709 13.5185C83.2773 13.8009 83.1257 14.0607 82.9258 14.281C82.7258 14.5014 82.482 14.6775 82.2099 14.798C81.9379 14.9185 81.6436 14.9808 81.3461 14.9808C81.0485 14.9808 80.7542 14.9185 80.4822 14.798C80.2101 14.6775 79.9663 14.5014 79.7664 14.281C79.5664 14.0607 79.4148 13.8009 79.3212 13.5185C79.2277 13.236 79.1942 12.9371 79.2231 12.641ZM82.5552 12.641C82.5552 11.6651 82.1169 11.0945 81.3475 11.0945C80.5753 11.0945 80.1408 11.6651 80.1408 12.641C80.1408 13.6246 80.5753 14.1909 81.3475 14.1909C82.1169 14.1909 82.5552 13.6207 82.5552 12.641Z" fill="white"/>
<path d="M84.6613 10.3921H85.5165V11.1073H85.5829C85.6955 10.8504 85.8855 10.6351 86.1263 10.4913C86.3671 10.3475 86.6468 10.2825 86.9263 10.3052C87.1454 10.2887 87.3653 10.3218 87.5699 10.4018C87.7744 10.4819 87.9583 10.607 88.108 10.7678C88.2576 10.9286 88.3692 11.121 88.4343 11.3308C88.4995 11.5406 88.5167 11.7623 88.4845 11.9796V14.8939H87.5961V12.2027C87.5961 11.4792 87.2817 11.1195 86.6246 11.1195C86.4759 11.1125 86.3275 11.1379 86.1894 11.1937C86.0514 11.2495 85.9271 11.3345 85.825 11.4428C85.7229 11.5512 85.6454 11.6804 85.5979 11.8215C85.5504 11.9625 85.534 12.1122 85.5497 12.2603V14.8939H84.6613V10.3921Z" fill="white"/>
<path d="M93.5047 9.27148V10.4128H94.4801V11.1612H93.5047V13.476C93.5047 13.9476 93.699 14.1541 94.1413 14.1541C94.2545 14.1537 94.3676 14.1468 94.4801 14.1335V14.8736C94.3205 14.9021 94.1589 14.9173 93.9968 14.919C93.0088 14.919 92.6153 14.5714 92.6153 13.7035V11.1611H91.9006V10.4128H92.6153V9.27148H93.5047Z" fill="white"/>
<path d="M95.6936 8.63477H96.5742V11.1156H96.6445C96.7626 10.8563 96.9578 10.6398 97.2034 10.4955C97.4491 10.3512 97.7332 10.2861 98.0172 10.3092C98.2351 10.2973 98.4529 10.3337 98.6552 10.4157C98.8574 10.4977 99.039 10.6234 99.1871 10.7837C99.3352 10.944 99.4461 11.135 99.5118 11.343C99.5776 11.5511 99.5966 11.7712 99.5676 11.9874V14.894H98.6782V12.2066C98.6782 11.4876 98.3433 11.1234 97.7156 11.1234C97.5629 11.1109 97.4093 11.1319 97.2656 11.1849C97.1218 11.2379 96.9914 11.3217 96.8834 11.4305C96.7755 11.5392 96.6926 11.6702 96.6405 11.8143C96.5885 11.9584 96.5685 12.1121 96.5821 12.2647V14.8939H95.6936L95.6936 8.63477Z" fill="white"/>
<path d="M104.748 13.6784C104.627 14.0899 104.366 14.4458 104.009 14.6838C103.652 14.9219 103.224 15.0271 102.797 14.9808C102.501 14.9887 102.206 14.9319 101.933 14.8144C101.661 14.6969 101.417 14.5215 101.22 14.3004C101.022 14.0793 100.874 13.8178 100.788 13.5341C100.701 13.2503 100.677 12.9511 100.718 12.6572C100.678 12.3624 100.702 12.0625 100.789 11.7779C100.875 11.4933 101.022 11.2306 101.219 11.0076C101.416 10.7846 101.658 10.6065 101.93 10.4853C102.201 10.3641 102.496 10.3027 102.793 10.3053C104.046 10.3053 104.802 11.161 104.802 12.5747V12.8847H101.623V12.9345C101.609 13.0997 101.63 13.266 101.684 13.4227C101.738 13.5794 101.824 13.7231 101.937 13.8445C102.05 13.9659 102.187 14.0624 102.339 14.1278C102.492 14.1932 102.656 14.226 102.822 14.2242C103.034 14.2497 103.249 14.2114 103.44 14.1142C103.631 14.017 103.788 13.8653 103.893 13.6784L104.748 13.6784ZM101.623 12.2276H103.897C103.908 12.0765 103.887 11.9248 103.836 11.7821C103.785 11.6394 103.705 11.509 103.601 11.3991C103.496 11.2893 103.37 11.2025 103.23 11.1444C103.09 11.0862 102.94 11.0579 102.788 11.0614C102.635 11.0595 102.482 11.0883 102.34 11.1463C102.198 11.2042 102.068 11.29 101.96 11.3987C101.851 11.5074 101.765 11.6367 101.707 11.7791C101.65 11.9215 101.621 12.074 101.623 12.2276Z" fill="white"/>
</svg>
