<svg width="136" height="41" viewBox="0 0 136 41" fill="none" xmlns="http://www.w3.org/2000/svg">
<path d="M130.499 1.40198C132.806 1.40198 134.684 3.25777 134.684 5.53921V35.0966C134.684 37.379 132.806 39.2338 130.497 39.2338H5.88472C3.57741 39.2338 1.69975 37.379 1.69975 35.0966V5.5412C1.69975 3.25975 3.57741 1.40397 5.88472 1.40397H130.499M130.499 0.614312H5.88472C3.14479 0.612323 0.900146 2.83012 0.900146 5.53822V35.0986C0.900146 37.8067 3.14479 40.0245 5.88472 40.0245H130.499C133.239 40.0245 135.482 37.8067 135.482 35.0976V5.53722C135.482 2.82912 133.239 0.611328 130.499 0.611328V0.614312Z" fill="#A6A6A6"/>
</svg>
