<svg width="86" height="18" viewBox="0 0 86 18" fill="none" xmlns="http://www.w3.org/2000/svg">
<path d="M27.8244 5.04518C25.4833 5.04518 23.5708 6.80549 23.5708 9.23612C23.5708 11.6459 25.4823 13.4251 27.8234 13.4251C30.1705 13.4251 32.083 11.6449 32.083 9.23512C32.083 6.8045 30.1695 5.04319 27.8224 5.04319L27.8244 5.04518ZM27.8244 11.7761C26.5415 11.7761 25.4345 10.7279 25.4345 9.23612C25.4345 7.72444 26.5405 6.69411 27.8244 6.69411C29.1093 6.69411 30.2212 7.72344 30.2212 9.23512C30.2212 10.7269 29.1093 11.7742 27.8244 11.7742V11.7761ZM18.5425 5.04518C16.1954 5.04518 14.2879 6.80549 14.2879 9.23612C14.2879 11.6459 16.1954 13.4251 18.5425 13.4251C20.8876 13.4251 22.7971 11.6449 22.7971 9.23512C22.7971 6.8045 20.8876 5.04319 18.5435 5.04319L18.5425 5.04518ZM18.5425 11.7761C17.2565 11.7761 16.1476 10.7279 16.1476 9.23612C16.1476 7.72444 17.2565 6.69411 18.5425 6.69411C19.8274 6.69411 20.9323 7.72344 20.9323 9.23512C20.9323 10.7269 19.8284 11.7742 18.5425 11.7742V11.7761ZM7.49625 6.32911V8.10932H11.7996C11.6733 9.10583 11.3371 9.83681 10.821 10.347C10.1924 10.9636 9.2138 11.6469 7.49526 11.6469C4.84782 11.6469 2.77424 9.53448 2.77424 6.91688C2.77424 4.29928 4.84683 2.18691 7.49426 2.18691C8.92638 2.18691 9.96865 2.74185 10.7364 3.45791L12.0064 2.20282C10.9323 1.1884 9.50022 0.408691 7.49426 0.408691C3.86424 0.408691 0.811035 3.32862 0.811035 6.91787C0.811035 10.5081 3.86424 13.4271 7.49426 13.4271C9.45746 13.4271 10.9313 12.7906 12.089 11.5991C13.2774 10.4256 13.6484 8.77466 13.6484 7.44199C13.6484 7.02827 13.6136 6.64836 13.5509 6.33011H7.49426L7.49625 6.32911ZM52.6637 7.71151C52.3136 6.77267 51.2336 5.04617 49.0337 5.04617C46.8517 5.04617 45.0357 6.74284 45.0357 9.23612C45.0357 11.5832 46.8328 13.4251 49.2425 13.4251C51.1898 13.4251 52.3136 12.2515 52.7761 11.5673L51.3311 10.6155C50.8487 11.3117 50.1913 11.7751 49.2425 11.7751C48.2977 11.7751 47.6215 11.3475 47.1888 10.5051L52.8596 8.1859L52.6627 7.70852L52.6637 7.71151ZM46.8815 9.10584C46.8318 7.48973 48.1515 6.66228 49.0963 6.66228C49.8363 6.66228 50.4648 7.02827 50.6737 7.55238L46.8825 9.10683L46.8815 9.10584ZM42.2729 13.1715H44.1366V0.855236H42.2729V13.1715ZM39.2197 5.97805H39.157C38.7393 5.48774 37.9407 5.04518 36.9293 5.04518C34.805 5.04518 32.8637 6.88705 32.8637 9.25004C32.8637 11.5971 34.805 13.4271 36.9283 13.4271C37.9397 13.4271 38.7383 12.9795 39.156 12.4743H39.2197V13.075C39.2197 14.6762 38.3545 15.5374 36.9561 15.5374C35.8174 15.5374 35.1113 14.7249 34.8179 14.0407L33.1968 14.711C33.6643 15.8219 34.9024 17.1874 36.9561 17.1874C39.1421 17.1874 40.986 15.9174 40.986 12.8254V5.29879H39.2197V5.97805ZM37.0874 11.7761C35.8025 11.7761 34.7274 10.712 34.7274 9.25004C34.7274 7.77317 35.8015 6.69411 37.0874 6.69411C38.3535 6.69411 39.352 7.77317 39.352 9.25004C39.352 10.712 38.3535 11.7761 37.0874 11.7761ZM61.3917 0.85623H56.9332V13.1715H58.793V8.50415H61.3917C63.4563 8.50415 65.4812 7.02727 65.4812 4.67919C65.4812 2.33211 63.4524 0.85623 61.3917 0.85623ZM61.4414 6.79157H58.792V2.56881H61.4404C62.8288 2.56881 63.6214 3.70853 63.6214 4.68019C63.6214 5.63295 62.8288 6.79256 61.4404 6.79256L61.4414 6.79157ZM72.9332 5.02131C71.5906 5.02131 70.1933 5.60808 69.6184 6.90793L71.2693 7.59117C71.6234 6.90793 72.2768 6.68615 72.967 6.68615C73.9317 6.68615 74.9103 7.259 74.9262 8.27043V8.39972C74.5881 8.20778 73.868 7.92235 72.9819 7.92235C71.2047 7.92235 69.3947 8.89002 69.3947 10.6941C69.3947 12.345 70.8496 13.4072 72.4876 13.4072C73.7378 13.4072 74.427 12.8502 74.8616 12.2008H74.9252V13.1516H76.7203V8.42757C76.7203 6.24359 75.0704 5.02131 72.9332 5.02131ZM72.7094 11.7722C72.1008 11.7722 71.2534 11.4738 71.2534 10.7279C71.2534 9.77515 72.3106 9.40917 73.2256 9.40917C74.0441 9.40917 74.429 9.58818 74.9262 9.82289C74.779 10.9636 73.7865 11.7722 72.7094 11.7722ZM83.2614 5.29182L81.1261 10.6324H81.0634L78.8536 5.29182H76.8486L80.1674 12.7538L78.2728 16.9049H80.2161L85.331 5.29083H83.2623L83.2614 5.29182ZM66.5036 13.1725H68.3673V0.855236H66.5036V13.1715V13.1725Z" fill="white"/>
</svg>
