<svg width="41" height="7" viewBox="0 0 41 7" fill="none" xmlns="http://www.w3.org/2000/svg">
<path d="M6.31441 4.08007C6.31441 4.87728 6.05584 5.51577 5.54644 5.99195C4.96076 6.55644 4.19796 6.83929 3.2632 6.83929C2.37111 6.83929 1.60831 6.55286 0.981256 5.9824C0.352913 5.40359 0.0400391 4.69349 0.0400391 3.84616C0.0400391 2.99882 0.352914 2.28873 0.979964 1.71588C1.60443 1.14303 2.36723 0.853027 3.26061 0.853027C3.70537 0.853027 4.12943 0.936568 4.53411 1.09529C4.9349 1.25402 5.26459 1.46884 5.50377 1.73378L4.96076 2.23741C4.54704 1.7839 3.98205 1.56193 3.25932 1.56193C2.60771 1.56193 2.04401 1.77197 1.56306 2.19445C1.08857 2.6205 0.851969 3.17067 0.851969 3.84616C0.851969 4.52164 1.08857 5.07539 1.56306 5.50145C2.04142 5.91915 2.60771 6.13397 3.25932 6.13397C3.95102 6.13397 4.53281 5.91915 4.99179 5.49668C5.29432 5.21622 5.46628 4.82835 5.51153 4.33547H3.25932V3.64566H6.26399C6.30019 3.79484 6.31053 3.93925 6.31053 4.07888L6.31441 4.08007ZM11.08 1.68724H8.2615V3.50126H10.8059V4.19345H8.2615V6.00746H11.0839V6.7092H7.46379V0.985498H11.0839V1.68962L11.08 1.68724ZM14.4454 6.7092H13.6464V1.68724H11.9139V0.985498H16.1778V1.68962H14.4454V6.7092ZM19.264 6.7092V0.985498H20.0604V6.7092H19.264ZM23.5951 6.7092H22.8039V1.68724H21.0662V0.985498H25.3328V1.68962H23.5964L23.5951 6.7092ZM33.4043 5.97166C32.7927 6.55167 32.0338 6.84048 31.1314 6.84048C30.2212 6.84048 29.4635 6.55167 28.852 5.97286C28.2418 5.39643 27.9379 4.68753 27.9379 3.84854C27.9379 3.00956 28.2418 2.30066 28.852 1.72423C29.4635 1.14422 30.2225 0.855414 31.1301 0.855414C32.0273 0.855414 32.785 1.14422 33.3965 1.72662C34.0119 2.3114 34.3144 3.01553 34.3144 3.84854C34.3144 4.68753 34.0119 5.39643 33.4017 5.97286L33.4043 5.97166ZM29.4441 5.49429C29.9044 5.92154 30.4655 6.13635 31.1314 6.13635C31.7907 6.13635 32.357 5.92154 32.8121 5.4919C33.2711 5.06465 33.5038 4.51329 33.5038 3.84735C33.5038 3.17903 33.2711 2.63005 32.8121 2.20041C32.357 1.77316 31.7907 1.55835 31.1314 1.55835C30.4629 1.55835 29.9031 1.77316 29.4429 2.2028C28.9839 2.63005 28.7512 3.18142 28.7512 3.84735C28.7512 4.51567 28.9839 5.06465 29.4416 5.49429H29.4441ZM35.438 6.7092V0.985498H36.4076L39.4239 5.437H39.4588L39.4239 4.33666V0.985498H40.2216V6.7092H39.389L36.2318 2.03811H36.1969L36.2318 3.14322V6.7092H35.438Z" fill="white" stroke="white" stroke-width="0.198746" stroke-miterlimit="10"/>
</svg>
